<?xml version="1.0" encoding="utf-8"?>
<!-- Generator: Adobe Illustrator 24.3.0, SVG Export Plug-In . SVG Version: 6.00 Build 0)  -->
<svg version="1.1" id="Camada_1" xmlns="http://www.w3.org/2000/svg" xmlns:xlink="http://www.w3.org/1999/xlink" x="0px" y="0px"
	 viewBox="0 0 554 674" style="enable-background:new 0 0 554 674;" xml:space="preserve">
<style type="text/css">
	.st0{fill:#12AFCB;}
	.st1{fill-rule:evenodd;clip-rule:evenodd;fill:#FFF7F9;}
	.st2{fill-rule:evenodd;clip-rule:evenodd;fill:#F5C2E1;}
	.st3{fill-rule:evenodd;clip-rule:evenodd;fill:#FF92CD;}
	.st4{fill-rule:evenodd;clip-rule:evenodd;fill:#FFDBEE;}
	.st5{fill-rule:evenodd;clip-rule:evenodd;fill:#FFD152;}
	.st6{fill-rule:evenodd;clip-rule:evenodd;fill:#F8CFDD;}
	.st7{fill-rule:evenodd;clip-rule:evenodd;fill:#703F59;}
	.st8{fill-rule:evenodd;clip-rule:evenodd;fill:#6CDCF2;}
	.st9{fill-rule:evenodd;clip-rule:evenodd;fill:#FFEFF4;}
	.st10{fill-rule:evenodd;clip-rule:evenodd;fill:#F3C888;}
	.st11{fill-rule:evenodd;clip-rule:evenodd;fill:#F9BD70;}
	.st12{fill-rule:evenodd;clip-rule:evenodd;fill:#FFE7A4;}
	.st13{fill-rule:evenodd;clip-rule:evenodd;fill:#F2F3F5;}
	.st14{fill-rule:evenodd;clip-rule:evenodd;fill:#FEDAC6;}
	.st15{fill-rule:evenodd;clip-rule:evenodd;fill:#664E2B;}
	.st16{fill-rule:evenodd;clip-rule:evenodd;fill:#86604F;}
	.st17{fill-rule:evenodd;clip-rule:evenodd;fill:#CCA18F;}
	.st18{fill-rule:evenodd;clip-rule:evenodd;fill:#DDF4E4;}
	.st19{fill-rule:evenodd;clip-rule:evenodd;fill:#28E7B1;}
	.st20{fill-rule:evenodd;clip-rule:evenodd;fill:#EBC6B6;}
	.st21{fill-rule:evenodd;clip-rule:evenodd;fill:#6B4434;}
	.st22{fill-rule:evenodd;clip-rule:evenodd;fill:#FFF2E1;}
</style>
<path class="st0" d="M147.9,633.3c47.6,0,86.2-8.7,86.2-19.5c0-10.7-38.6-19.5-86.2-19.5c-47.6,0-86.2,8.7-86.2,19.5
	C61.6,624.5,100.2,633.3,147.9,633.3z"/>
<path class="st0" d="M234.2,340.5c39.9,0,72.2-7.5,72.2-16.7c0-9.2-32.3-16.7-72.2-16.7c-39.9,0-72.2,7.5-72.2,16.7
	C162,333,194.3,340.5,234.2,340.5z"/>
<path class="st0" d="M388.2,542.9c59.8,0,108.3-11.1,108.3-24.8s-48.5-24.8-108.3-24.8c-59.8,0-108.3,11.1-108.3,24.8
	S328.4,542.9,388.2,542.9z"/>
<path class="st1" d="M267.5,121.6c-1,1.5-1.8,2.9-2.8,4.2c-1.1,1.4-2.3,2.8-3.7,4c-3.1,2.5-6.6,3-10.3,1.5c-4.7-1.9-8.1-5.2-9.9-10
	c-0.3-0.9-0.7-1.8-1.1-3c-0.8,0.9-1.5,1.5-2.1,2.2c-2.2,2.3-4.6,4.2-7.6,5.3c-1,0.4-2.1,0.6-3.1,0.8c-3.4,0.6-5.5-1.5-6.5-3.6
	c-0.4-0.8-0.6-1.6-0.9-2.3c-0.8-0.3-1,0.4-1.3,0.7c-1.7,1.8-3.3,3.7-5.1,5.4c-1.9,1.8-4.2,3-6.8,3.5c-0.6,0.1-1.3,0.2-1.9,0.3
	c-3.8,0.2-6-1.3-7.6-5.4c-0.3,0.6-0.7,1.1-0.8,1.6c-1.6,5.2-2.2,10.5-2.2,16c0,10.5,3.5,19.9,8.5,28.9c1.3,2.3,2.6,4.5,4.1,6.6
	c5.7,8,13.4,13.2,22.4,16.8c2.6,1,5.3,1.7,8,2.1c3.5,0.5,7,0.8,10.5,0.9c10.8,0.1,21-2.4,30.5-7.8c5.2-2.9,9.9-6.5,13.9-10.8
	c6.1-6.6,11.3-13.8,14.3-22.4c0.3-0.9,0.6-1.8,0.8-2.8c0-0.2-0.1-0.4-0.3-0.8c-0.6,0.1-1.2,0.2-1.8,0.3c-1.8,0.6-3.4,0.1-4.8-1.1
	c-1.2-1.1-2.3-2.2-3.3-3.5c-2.4-3.3-4.4-6.9-6-10.7c-0.4-0.9-0.5-2.1-1.7-2.8c-0.5,0.7-0.9,1.5-1.6,2c-0.9,0.8-1.9,1.5-2.9,2
	c-1.8,0.9-3.6,0.5-5.1-0.6c-1.6-1.2-2.8-2.7-3.8-4.3c-2.2-3.6-4.4-7.2-6.5-10.8C268.4,122.9,268,122.4,267.5,121.6z M237.4,167.4
	C237.4,167.4,237.4,167.4,237.4,167.4c0,1.3,0,2.6,0.3,3.9c0.4,2.2,3,4.5,5.1,4.8c3.3,0.5,6.8-1.8,7.6-5c0.3-1.2,0.2-2.6,0.4-3.8
	c0.1-0.7,0.3-1.3,1-1.5c0.7-0.2,1.5,0.4,1.7,1.1c0.1,0.4,0.2,0.9,0.2,1.3c0.2,5.1-2.3,8.7-7.1,10.3c-4.5,1.5-9.6-1-11.3-5.5
	c-1.1-2.9-0.8-6-0.4-9c0.1-0.6,1-1.2,1.4-1c0.4,0.2,1,0.7,1,1.1C237.4,165.2,237.4,166.3,237.4,167.4z M265.4,159.3
	c-0.2-2.5,1.3-4.1,4.1-4.3c2.7-0.2,4.7,1.4,4.9,3.9c0.2,2.4-1.6,4.5-3.9,4.7C267.9,163.8,265.6,161.9,265.4,159.3z M218.2,148.8
	c-0.2-1.8,0.6-3.4,2-4.1c2.4-1.1,5.8,0.4,6.6,2.9c0.6,1.8-0.2,3.9-1.8,4.8C222.4,153.9,218.6,151.9,218.2,148.8z"/>
<path class="st2" d="M290.5,105.2c-2.9,0.6-5.2-0.4-7.2-1.9c-2-1.6-4-3.3-6-4.9c-0.8-0.7-1.7-1.4-2.6-1.9c-0.8-0.5-1.7-0.8-2.7-0.9
	c-1.6-0.1-3.2-0.5-4.7-0.9c-1.8-0.5-3.4-1.4-4.1-3.1c-3.7-0.7-7.2-1.3-10.6-1.9c-2.2-0.4-4.5-0.5-6.7-0.5
	c-10.8-0.1-20.5,3.2-29.4,9.1c-7.6,5-13.4,11.8-17.4,20c-0.4,0.8-0.5,1.6-0.3,2.5c0.4,1.3,0.7,2.7,1,4.1c0.6,2.1,1.6,2.8,3.7,2.8
	c1.8,0,3.5-0.3,4.9-1.3c1.7-1.2,3.3-2.4,4.7-3.9c2-2.1,3.8-4.4,5.2-7c0.2-0.5,0.6-0.9,1-1.3c0.4-0.4,1.5-0.2,1.7,0.3
	c0.2,0.5,0.4,1,0.5,1.5c0.3,1.5,0.4,3,0.8,4.5c0.7,2.7,2.3,3.7,5,3c4.4-1.1,7.5-4,10-7.6c0.7-1,1.1-2.1,1.7-3.1
	c0.2-0.4,0.4-0.7,0.7-1c0.5-0.5,1.7-0.2,1.9,0.5c0.2,0.6,0.2,1.3,0.3,1.9c0.2,1.5,0.4,3,0.8,4.5c1.2,4.7,4.2,8,8.5,9.9
	c2.9,1.2,5.7,0.9,8.1-1.2c2.5-2.1,4.2-4.8,5.6-7.8c0.3-0.7,0.6-1.4,1-2c0.5-0.7,1.7-0.8,2.2-0.1c0.5,0.6,0.8,1.3,1.2,1.9
	c2.6,4.3,5.2,8.7,7.8,13c0.8,1.3,1.8,2.5,2.8,3.5c1.3,1.4,2.8,1.4,4.3,0.2c1.2-0.9,1.9-2.3,2.6-3.6c0.4-0.9,0.8-1.8,1.3-2.6
	c0.6-0.9,1.9-0.7,2.3,0.3c0.2,0.5,0.3,1,0.4,1.6c1.6,5.9,4.6,11.1,8,16.1c0.3,0.4,0.7,0.8,1,1.2c2,2.1,4.6,2.3,6.9,0.4
	c0.8-0.6,0.9-1.5,0.9-2.3c0.1-3.7,0.1-7.4-0.5-11c-1.4-7.5-4.4-14.2-8.7-20.4C296.3,112.2,293.3,108.8,290.5,105.2z"/>
<path class="st3" d="M253.2,200.6c-7.2,0.3-14.2,0.1-21-1.6c-1.7,2.7-2.7,5.5-3.9,8.2c-6.4,14.1-11.9,28.5-15.8,43.4
	c1.1,2.1,3,2.8,4.9,3.5c5.5,1.8,11.2,2.9,17.1,2.5c5.6-0.4,11.2-0.3,16.6-1.8c5.1-1.4,10.1-2.9,15.1-4.5c1.4-0.5,2.7-1.3,4-2.1
	c1-0.6,1.1-1.2,0.7-2.2c-0.2-0.5-0.5-0.9-0.8-1.4c-4-6.8-7-14.1-9.6-21.6c-2.3-6.5-4.5-13.1-6.2-19.8
	C253.9,202.4,253.6,201.7,253.2,200.6z"/>
<path class="st4" d="M280.1,261.1c-1.1-2.3-4.8-8-7.2-11.1c-0.4,0.2-0.9,0.4-1.3,0.6c-2.4,1.5-4.9,2.6-7.6,3.4
	c-6.5,2.1-13.1,4.2-19.9,4.8c-5.4,0.5-10.9,0.9-16.3,0.4c-5.1-0.4-10.1-1.7-14.8-4c-0.5-0.2-1-0.3-1.6-0.6
	c-1.3,3.8-1.6,7.5-1.1,11.3c0.2,1.2,0.8,2,1.8,2.5c1.2,0.5,2.4,0.9,3.6,1.2c5.1,1.1,10.4,1.6,15.6,1.4c4.1-0.2,8.1-0.4,12.2-0.7
	c8.2-0.5,16.1-2.3,23.9-4.7c3.7-1.1,7.3-2.5,10.9-3.8C279,261.7,279.6,261.4,280.1,261.1z"/>
<path class="st2" d="M268.1,81.7c2.1,0.6,4.2,1.2,6.5,1.8c5.5-4.1,10.5-8.7,13.9-14.9c2.4-4.5,2.7-9.3,1.2-14.1
	c-0.3-1-0.9-2-1.5-2.9c-0.6-0.9-1.7-1-2.5-0.2c-0.8,0.9-1.6,1.8-2.1,2.8c-0.9,1.6-1.6,3.3-2.3,5c-0.3,0.7-0.5,1.4-1,2
	c-0.3,0.4-0.9,0.7-1.3,0.6c-0.4-0.1-0.9-0.6-1.1-1c-0.2-0.6-0.2-1.3-0.3-1.9c-0.5-2.3-1-4.6-1.5-7c-0.3-1.3-0.9-2.4-2-3.6
	c-0.3,0.4-0.7,0.7-0.9,1.2c-0.4,1.3-0.7,2.7-1,4.1c-0.1,0.5-0.2,1.1-0.4,1.5c-0.2,0.3-0.7,0.7-1,0.7c-0.5,0-1.1-0.3-1.3-0.7
	c-0.5-1.1-0.8-2.2-1.2-3.3c-0.2-0.6-0.6-1-1-1.7c-1,1.8-1,3.5-1.2,5.2c-0.2,1.7-0.3,3.5-0.2,5.2C266.2,67.6,266.7,74.6,268.1,81.7z"
	/>
<path class="st1" d="M320.7,207.1c-0.5-1.6-1.5-2.1-2.5-2.8c-0.5-0.4-1.1-0.6-1.6-1c-0.7-0.6-0.6-1.8,0.3-2.2
	c0.7-0.3,1.4-0.5,2.1-0.7c0.8-0.3,1.6-0.5,2.4-0.9c0.6-0.3,1-0.8,0.8-1.6c-0.2-0.7-0.6-1.2-1.3-1.3c-0.5-0.1-1.1,0.1-1.6,0.1
	c-0.7,0-1.3-0.2-1.6-0.9c-0.3-0.7,0-1.3,0.8-1.9c0.3-0.2,0.6-0.3,0.8-0.5c2.3-1.6,2.6-2.7,1.8-5.9c-1.3-0.3-2.5,0.4-3.6,0.8
	c-1.8,0.8-3.5,1.7-5.2,2.5c-0.8,0.4-1.4,1-1.8,1.7c-0.4,0.6-0.9,0.9-1.6,0.7c-0.7-0.2-1.1-0.8-1.1-1.4c-0.1-0.6,0.1-1.2,0.2-1.9
	c0-1,0-1.9-0.1-2.9c-0.2-0.9-0.8-1.5-1.6-1.9c-1-0.5-2-0.2-2.4,0.8c-0.2,0.6-0.5,1.2-0.5,1.9c-0.2,2.2-0.4,4.5-0.6,6.8
	c-0.1,0.8,0.1,1.5,0,2.3c-0.7,4.1,0.4,7.9,2.2,11.5c1.9,3.7,4.9,5.4,9.2,5.1c0.8-1.2,0.2-2.5-0.1-3.7c-0.2-0.6-0.5-1.2-0.7-1.8
	c-0.2-0.9,0.7-1.8,1.5-1.5c0.6,0.2,1.2,0.6,1.7,0.8C317.9,207.9,319.2,207.9,320.7,207.1z"/>
<path class="st1" d="M300.2,173.4c1.1,0.3,1.7,0.6,2.3,0.5c4.7-0.2,9.2-1.1,12.7-4.6c3.8-3.7,5.4-8.3,4.1-13.6
	c-0.6-2.7-2.5-4.2-5.1-4.8c-2.1-0.5-3.6,0.4-4.3,2.4c-0.5,1.3-0.8,2.7-1.3,4c-1.6,4.7-4,9.1-6.7,13.2
	C301.4,171.4,300.9,172.2,300.2,173.4z"/>
<path class="st1" d="M178.4,167.2c-1.1,0.2-1.3,0.9-1.4,1.7c0,1.3,0.1,2.6,0.2,3.9c0.2,1.8,0,2.6-0.9,2.8c-1.2,0.2-1.6-0.7-2.2-1.5
	c-0.5-0.8-1.1-1.6-1.8-2.2c-0.4-0.4-1.2-0.8-1.7-0.2c-0.3,0.3-0.6,1-0.5,1.4c0.2,1,0.5,2.1,0.9,3.1c0.2,0.5,0.6,1,0.6,1.4
	c0,0.5-0.1,1.1-0.5,1.4c-0.3,0.3-1.1,0.3-1.4,0.1c-1-0.6-1.8-1.6-3.1-1.4c-0.5,0.1-1,0.3-1.3,0.4c-0.2,0.9,0.2,1.2,0.7,1.5
	c0.4,0.3,1,0.5,1.4,0.7c1.3,0.8,1.4,2,0.1,2.7c-0.5,0.3-1.2,0.6-1.7,0.9c-0.4,0.3-0.7,0.7-1.3,1.3c0.5,0.4,0.9,0.8,1.3,1
	c2.2,0.8,4.6,1,6.9,0.8c1.3-0.1,2.5-0.2,3.8-0.1c2.6,0.1,4.9-0.5,6.5-2.8c1.6-2.2,3.2-4.3,4.8-6.5c0.7-1,1.1-2.1,1-3.3
	c0-0.4-0.3-0.9-0.6-1c-0.4-0.2-1.2-0.2-1.4,0.1c-0.9,0.9-1.6,2-2.4,3c-0.6,0.8-0.9,1.8-2.2,1.5c-1-0.3-1-1.3-1.1-2.1
	c-0.3-2.4-0.6-4.7-1.7-6.9C179.2,168.1,178.7,167.6,178.4,167.2z"/>
<path class="st1" d="M191.2,150.5c-0.1-1.6-0.1-2.7-0.2-3.8c-0.5-6-0.1-11.9,1.2-17.7c0.1-0.3,0.1-0.6,0.2-0.9
	c0.7-2.3-0.5-4-2.3-5.2c-1.4-1-4-1.1-5.7,0.5c-2.1,1.9-3.3,4.2-3.4,7.1c-0.1,6.6,2.3,12.2,6.2,17.3c0.5,0.7,1.2,1.2,1.9,1.7
	C189.6,149.8,190.1,150,191.2,150.5z"/>
<path class="st3" d="M174.6,272.4c-0.6,1.6-0.5,3.2,0.1,4.5c2.2,5.1,5.5,9.2,10.6,11.7c0.2,0.1,0.4,0.1,0.7,0.1
	c0.8-0.9,1.1-2,0.6-3.2c-1.5-4.2-3.6-8.1-7-11.1c-1-0.9-2.3-1.5-3.6-2.1C175.7,272.2,175.1,272.4,174.6,272.4z"/>
<path class="st3" d="M268.4,306c-0.5,1.2-1.1,2.5-1.6,3.8c-0.8,2.3-1.6,4.7-2.4,7c-0.4,1.3-0.5,2.5-0.2,3.8c0.2,0.9,1.1,1.4,2,1.1
	c1.1-0.3,1.9-1,2.5-1.9c2.2-3,3.2-6.3,3-10C271.7,307.7,270.8,306.4,268.4,306z"/>
<path class="st5" d="M264,88.3c1.3-1.5,1.5-2.9,1.4-4.5c-0.2-2.3-0.8-4.5-1.5-6.6c-1.3-3.8-3.1-7.4-5.5-10.6c-1-1.3-2.1-2.4-3.4-3.4
	c-1.6-1.2-3-0.8-4.1,0.9c-1.3,2-1.7,4.2-1.8,6.5c-0.2,4.4,0.2,8.9,0.8,13.3c0.2,1.3,0.6,2.2,2,2.6C255.9,87.5,259.9,88.4,264,88.3z"
	/>
<path class="st5" d="M275.9,93.5c2.8,2.3,5.6,4.7,8.4,7c0.7,0.6,1.6,1.1,2.4,1.6c1.6,0.8,2.9,0.4,3.9-1c0.3-0.3,0.4-0.7,0.7-1.1
	c2.4-4.5,4.4-9.2,5.9-14c0.5-1.5,1-3.1,0.2-4.7c-1.1-0.7-2.2-0.3-3.2-0.2c-3,0.3-13.3,3.1-16.3,4.5c-0.3,1.2-0.6,2.5-0.9,3.9
	C276.6,90.7,276.3,92.1,275.9,93.5z"/>
<path class="st5" d="M266.5,91c1.6,1.1,3.1,1.4,4.6,1.6c1.4,0.1,2.1-0.2,2.5-1.5c0.4-1.1,0.6-2.3,0.8-3.4c-1.3-1.9-3.1-2.4-5.1-2.8
	C267.8,86.7,267.7,89,266.5,91z"/>
<path class="st6" d="M280.9,160.5c5.7,0,10.1,5.2,9.6,10.8c-0.2,2.5-1.4,4.6-3.2,6c-1.5,1.5-3.5,2.5-5.5,2.8c-4.6,0.7-8.8-3.9-9.7-8
	C270.9,166.6,274.9,160.6,280.9,160.5z"/>
<path class="st6" d="M198.3,155.2c0-0.9,0.2-1.8,0.5-2.6c0.8-4.3,4.6-7.2,9-7.1c4.9,0.2,9.8,3.3,9.9,8.8c0.1,5.9-5.5,10.1-11,9.5
	C202.6,163.4,198.1,159.5,198.3,155.2z"/>
<path class="st7" d="M257,202.5c1.9,0.5,3,1.6,4.1,2.6c3.3,2.8,6.7,5.4,10.5,7.5c3,1.6,6.1,2.5,9.5,2.6c6.8,0.1,13.5-0.9,19.5-4.6
	c0.4-0.3,0.9-0.5,1.5-0.7c0.6,0.8,1.1,1.5,1.6,2.1c2.4,2.7,5.2,4.4,8.9,4.6c0.5,0,1.1,0,1.6,0c2-0.3,3.1-1.3,3.3-3.4
	c0.1-0.6,0-1.3,0-2.1c0.6-0.1,1.2-0.3,1.8-0.4c0.5-0.1,1.1-0.2,1.6-0.4c3.2-1,3.9-2.8,2.1-5.6c-0.4-0.5-0.8-1-1.3-1.7
	c0.5-0.4,1-0.8,1.5-1.1c2.1-1.3,2.4-2.8,1.6-5.3c-0.3-0.8-0.8-1.5-1.4-2.4c0.3-0.7,0.6-1.5,0.9-2.3c0.5-1.6,0.4-3.2,0.1-4.8
	c-0.4-1.7-1.5-2.5-3.2-2.5c-1.8,0-3.3,0.7-4.9,1.4c-1.5,0.7-2.9,1.4-4.2,2c-1.1-0.4-1-1.4-1.4-2.2c-0.8-1.8-2-3-3.9-3.5
	c-2.2-0.6-4.1,0.1-5,2.3c-0.5,1.1-0.9,2.2-1,3.4c-0.3,3.3-0.6,6.7-0.6,10c0,3,0.3,6,0.4,9.3c-3,2.3-6.5,3.8-10.4,4.3
	c-2.9,0.4-5.8,0.6-8.6,0.7c-2.6,0.1-5.1-0.5-7.5-1.7c-3.8-1.9-7.1-4.4-10.4-7.1c-1.3-1.1-2.5-2.3-3.9-3.6c1.2-0.8,2.6-0.7,3.8-1.1
	c1.3-0.5,2.7-0.8,4-1.2c1.4-0.5,2.8-1,4.2-1.6c1.3-0.5,2.6-1.1,3.8-1.7c1.2-0.6,2.5-1.3,3.7-2c1.2-0.7,2.4-1.4,3.6-2.2
	c1.2-0.8,2.3-1.6,3.4-2.4c1.1-0.8,2.2-1.7,3.3-2.6c1.1-1,2.2-2,3.3-3.1c1-1,2-2,2.9-3c0.9-1,1.8-2.1,2.6-3.1
	c7,1.9,13.2,0.3,18.4-4.1c4.6-3.9,6.4-9.1,5.7-15.1c-0.6-5.3-4.5-8.7-9.9-8.6c-0.4,0-0.8,0-1.5,0c0-0.6-0.1-1.1-0.1-1.6
	c0.6-9.1-1.7-17.6-5.8-25.6c-2.8-5.5-6.5-10.4-10.6-15c-0.6-0.6-1.1-1.3-1.8-2c0.3-0.8,0.6-1.6,1-2.3c2.2-4.2,4.1-8.6,5.6-13.1
	c0.5-1.4,0.9-2.9,1.2-4.4c0.2-0.8,0.2-1.7,0.1-2.6c-0.3-2.2-1.4-3.3-3.6-3.5c-1.1-0.1-2.2,0-3.2,0.2c-3,0.6-6.1,1.4-9.1,2.1
	c-0.4,0.1-0.8,0.1-1.7,0.3c0.6-0.8,1-1.3,1.3-1.7c1.9-2.4,3.9-4.6,5.6-7.1c3.8-5.8,4.4-12.1,2.3-18.6c-0.4-1.3-1.2-2.6-2-3.6
	c-1.7-2.1-4.2-2.2-6.2-0.3c-0.9,0.9-1.7,2-2.4,3c-0.4,0.6-0.8,1.2-1.3,2.1c-0.4-0.5-0.7-0.8-0.8-1.1c-0.4-1.1-0.6-2.3-1.1-3.4
	c-0.5-1.2-1.2-2.3-2-3.3c-1.7-2-3.5-1.9-5,0.3c-0.4,0.5-0.6,1.1-1,1.9c-0.5-0.5-0.8-0.9-1.2-1.2c-1.7-1.5-3.4-1.2-4.4,0.9
	c-0.4,1-0.8,2-1,3.1c-0.3,2.8-0.6,5.6-0.7,8.4c-0.1,2.3,0.2,4.5,0.4,6.8c0,0.5,0,1,0,2.1c-0.8-1.1-1.3-1.6-1.7-2.2
	c-1.1-1.4-2.1-2.8-3.2-4c-0.7-0.8-1.6-1.5-2.5-2c-2.6-1.5-5.3-0.9-7.1,1.5c-1.8,2.4-2.4,5.3-2.5,8.2c-0.2,4.9,0,9.7,0.9,14.5
	c0.1,0.3,0,0.6,0,1.1c-0.6,0.1-1.2,0.3-1.8,0.3c-11.4-0.1-21.7,3.7-31.1,10c-6.5,4.4-11.7,10.1-15.7,16.9c-1.4,2.3-2.4,4.8-3.7,7.2
	c-0.3,0.7-0.7,1.3-1.1,2c-0.6-0.5-1.1-0.9-1.6-1.3c-3.2-2.4-7-2.3-10,0.4c-2.3,2.1-3.7,4.7-4,7.9c-0.3,2.4-0.1,4.7,0.5,7.1
	c0.9,3.4,2.1,6.6,3.8,9.6c2.6,4.4,4.4,5.9,9.2,7.9c0.3,0.9,0.6,1.9,0.9,2.9c2.9,9.5,7.3,18.2,13.5,26c1.1,1.3,2.3,2.6,3.6,3.7
	c4.9,4.2,10.2,7.9,16.2,10.4c0.6,0.2,1.2,0.5,1.7,0.8c0.1,0,0.1,0.2,0.3,0.5c-0.3,0.3-0.5,0.8-0.9,1.1c-3.1,2.9-6.4,5.4-10.3,7.1
	c-5.5,2.3-11.2,2.9-16.9,0.8c-3.9-1.4-7-3.7-9.5-6.9c-2.2-2.8-4.2-5.7-6.3-8.6c-0.7-1-1.4-2.2-1.4-3.7c3.1-2.6,5.6-5.8,7.6-9.4
	c1-1.7,1.5-3.6,1.1-5.6c-0.5-2.2-2.5-3.6-4.5-3.1c-0.5,0.1-1,0.4-1.5,0.6c-0.5,0.3-1,0.7-1.7,1.2c-0.3-0.6-0.5-1.2-0.8-1.7
	c-0.7-1.5-1.1-3.1-2-4.4c-1.5-2.3-4-2.2-5.6,0c-0.7,0.9-1,2.1-1.5,3.3c-0.7-0.2-1.4-0.4-2.1-0.5c-2.2-0.3-3.8,0.8-4.3,3
	c-0.2,0.9-0.3,1.9-0.4,3c-0.8,0.2-1.7,0.3-2.5,0.6c-2.2,0.8-3,2.5-2.1,4.6c0.3,0.7,0.7,1.3,1.1,2c-0.5,0.7-1.1,1.4-1.5,2.1
	c-0.8,1.6-0.3,3.3,1.2,4.3c0.6,0.4,1.3,0.8,2,0.9c1.9,0.4,3.8,1,5.7,0.8c3.2-0.2,6.1,0.6,8.9,0.8c2.8,3.9,5.4,7.6,8.1,11.2
	c4.1,5.4,9.6,8.6,16.3,9.4c4.4,0.5,8.8,0,12.9-1.8c2.3-1,4.4-2.3,6.5-3.5c0.6-0.3,1.2-0.8,1.8-1.1c0.7,0.8,0.1,1.3-0.1,1.9
	c-2,4.9-4.1,9.7-6.2,14.6c-4.4,10.7-7.7,21.8-10.7,32.9c-1,3.5-1.5,7.2-1.2,10.9c0.3,3.6,2.1,5.8,5.4,6.8c1.5,0.4,3,0.8,4.6,1.3
	c-6.2,7.8-18.8,14.6-27.2,14.1c-0.3-0.7-0.6-1.5-0.8-2.3c-1.5-4.6-3.8-8.7-7.3-12c-0.9-0.9-2-1.6-3.1-2.3c-0.4-0.3-1-0.5-1.5-0.7
	c-3.1-1.1-6-0.3-6.1,4.1c0,1.7,0.3,3.2,1,4.7c2.2,4.9,5.5,8.8,10,11.6c1.1,0.7,2.3,1.1,3.5,1.5c1.1,0.4,2.2,0.2,2.9-0.7
	c0.5-0.7,1.2-0.8,2-0.9c6.9-0.5,13.2-2.8,18.9-6.6c4.2-2.8,8-6.1,11.5-10c11.8,0.7,23.5-0.2,35.2-1.9c1.1,0.8,1.6,1.9,2,3.2
	c0.9,3.1,1.8,6.2,2.8,9.3c1.6,5.1,3.4,10.3,5,15.4c0.2,0.7,0.4,1.4,0.7,2.3c-0.7,0.9-1.4,1.8-1.4,3.1c0,0.9-0.6,1.8-0.9,2.8
	c-0.9,2.7-1.8,5.3-2.7,8c-0.6,1.7-0.7,3.4-0.4,5.1c0.6,3.4,3.4,4.9,6.4,3.3c1.1-0.6,2.2-1.4,2.9-2.4c3.1-4,4.3-8.6,3.4-13.7
	c-0.3-1.6-0.9-2.9-2.4-3.6c-1.3-0.6-1.8-1.7-2.2-3c-2.5-7.5-5.2-14.9-7.2-22.5c-0.7-2.6-1.6-5.1-2.5-7.8c0.5-0.2,1-0.4,1.5-0.6
	c3.8-1.1,7.6-2.1,11.4-3.3c3-1,5.8-2.2,8.7-3.3c0.5-0.2,1-0.5,1.4-0.8c0.7-0.5,0.9-1.3,0.6-2c-0.4-0.8-0.9-1.5-1.3-2.2
	c-2.3-3.5-4.6-7-6.9-10.6c-5.4-8.3-9.3-17.3-12.6-26.6c-2-5.7-3.7-11.5-5.5-17.3C257.2,203.9,257.1,203.4,257,202.5z M267.5,121.6
	c0.5,0.7,1,1.3,1.3,1.9c2.2,3.6,4.3,7.2,6.5,10.8c1,1.7,2.2,3.2,3.8,4.3c1.6,1.2,3.3,1.5,5.1,0.6c1-0.5,2-1.2,2.9-2
	c0.6-0.5,1.1-1.3,1.6-2c1.2,0.7,1.3,1.9,1.7,2.8c1.7,3.8,3.6,7.4,6,10.7c0.9,1.3,2.1,2.5,3.3,3.5c1.3,1.2,3,1.7,4.8,1.1
	c0.6-0.2,1.2-0.2,1.8-0.3c0.2,0.4,0.3,0.6,0.3,0.8c-0.2,0.9-0.5,1.9-0.8,2.8c-3.1,8.6-8.2,15.8-14.3,22.4c-4,4.4-8.8,7.9-13.9,10.8
	c-9.5,5.4-19.6,7.9-30.5,7.8c-3.5,0-7.1-0.3-10.5-0.9c-2.7-0.4-5.5-1.1-8-2.1c-9-3.5-16.7-8.8-22.4-16.8c-1.5-2.1-2.8-4.3-4.1-6.6
	c-5-9-8.5-18.4-8.5-28.9c0-5.5,0.6-10.8,2.2-16c0.2-0.5,0.5-1,0.8-1.6c1.6,4.1,3.8,5.6,7.6,5.4c0.6,0,1.3-0.1,1.9-0.3
	c2.6-0.5,4.9-1.7,6.8-3.5c1.8-1.7,3.4-3.6,5.1-5.4c0.3-0.4,0.5-1,1.3-0.7c0.3,0.7,0.5,1.5,0.9,2.3c1,2.1,3.1,4.2,6.5,3.6
	c1-0.2,2.1-0.4,3.1-0.8c3-1.1,5.4-3,7.6-5.3c0.6-0.7,1.3-1.3,2.1-2.2c0.4,1.2,0.8,2.1,1.1,3c1.9,4.8,5.3,8.1,9.9,10
	c3.7,1.5,7.2,1,10.3-1.5c1.4-1.1,2.6-2.6,3.7-4C265.7,124.5,266.5,123.1,267.5,121.6z M290.5,105.2c2.9,3.6,5.8,7,8.3,10.6
	c4.3,6.1,7.4,12.9,8.7,20.4c0.7,3.6,0.7,7.3,0.5,11c0,0.9-0.1,1.7-0.9,2.3c-2.3,1.8-4.9,1.7-6.9-0.4c-0.4-0.4-0.7-0.8-1-1.2
	c-3.4-5-6.5-10.2-8.1-16.1c-0.1-0.5-0.2-1.1-0.4-1.6c-0.4-1-1.7-1.2-2.3-0.3c-0.5,0.8-0.9,1.7-1.3,2.6c-0.7,1.4-1.4,2.7-2.6,3.6
	c-1.5,1.2-3,1.2-4.3-0.2c-1-1.1-2-2.3-2.8-3.5c-2.7-4.3-5.2-8.7-7.8-13c-0.4-0.6-0.7-1.3-1.2-1.9c-0.5-0.7-1.8-0.6-2.2,0.1
	c-0.4,0.6-0.6,1.4-1,2c-1.4,2.9-3.1,5.7-5.6,7.8c-2.5,2.1-5.2,2.4-8.1,1.2c-4.4-1.9-7.4-5.1-8.5-9.9c-0.4-1.5-0.5-3-0.8-4.5
	c-0.1-0.6-0.1-1.3-0.3-1.9c-0.2-0.7-1.4-1-1.9-0.5c-0.3,0.3-0.5,0.7-0.7,1c-0.6,1-1.1,2.1-1.7,3.1c-2.5,3.7-5.6,6.5-10,7.6
	c-2.7,0.7-4.4-0.3-5-3c-0.4-1.5-0.5-3-0.8-4.5c-0.1-0.5-0.3-1-0.5-1.5c-0.2-0.5-1.3-0.7-1.7-0.3c-0.4,0.4-0.7,0.8-1,1.3
	c-1.3,2.6-3.2,4.9-5.2,7c-1.4,1.5-3.1,2.7-4.7,3.9c-1.4,1-3.2,1.3-4.9,1.3c-2.1,0-3.1-0.8-3.7-2.8c-0.4-1.3-0.7-2.7-1.1-4.1
	c-0.3-0.9-0.1-1.7,0.3-2.5c4-8.2,9.8-15,17.4-20c8.9-5.9,18.6-9.2,29.4-9.1c2.3,0,4.5,0.1,6.7,0.5c3.5,0.6,6.9,1.3,10.6,1.9
	c0.7,1.7,2.3,2.5,4.1,3.1c1.5,0.4,3.1,0.8,4.7,0.9c1,0.1,1.9,0.4,2.7,0.9c0.9,0.6,1.7,1.2,2.6,1.9c2,1.6,3.9,3.3,6,4.9
	C285.3,104.8,287.5,105.8,290.5,105.2z M253.2,200.5c0.4,1.1,0.7,1.9,0.9,2.7c1.6,6.7,3.9,13.3,6.2,19.8c2.7,7.4,5.7,14.7,9.6,21.6
	c0.3,0.5,0.6,0.9,0.8,1.4c0.5,1,0.3,1.6-0.7,2.2c-1.3,0.8-2.6,1.6-4,2.1c-5,1.6-10,3.2-15.1,4.5c-5.4,1.5-11,1.5-16.6,1.8
	c-5.9,0.4-11.5-0.7-17.1-2.5c-1.9-0.6-3.9-1.3-4.9-3.5c3.9-15,9.4-29.4,15.8-43.4c1.2-2.7,2.2-5.6,3.9-8.2
	C239.1,200.6,246,200.8,253.2,200.5z M280.1,261.1c-0.5,0.3-1.1,0.7-1.7,0.9c-3.6,1.3-7.2,2.7-10.9,3.8c-7.8,2.4-15.7,4.2-23.9,4.7
	c-4.1,0.2-8.1,0.5-12.2,0.7c-5.3,0.2-10.5-0.3-15.6-1.4c-1.2-0.3-2.5-0.7-3.6-1.2c-1-0.4-1.7-1.3-1.8-2.5c-0.5-3.8-0.3-7.5,1.1-11.3
	c0.6,0.2,1.1,0.3,1.6,0.6c4.7,2.3,9.6,3.6,14.8,4c5.4,0.4,10.9,0,16.3-0.4c6.9-0.6,13.4-2.6,19.9-4.8c2.7-0.9,5.2-1.9,7.6-3.4
	c0.4-0.3,0.9-0.4,1.3-0.6C275.3,253,279.1,258.8,280.1,261.1z M268.1,81.7c-1.5-7.1-2-14.1-2.2-21.1c-0.1-1.7,0-3.5,0.2-5.2
	c0.2-1.7,0.2-3.4,1.2-5.2c0.4,0.7,0.8,1.2,1,1.7c0.4,1.1,0.7,2.3,1.2,3.3c0.2,0.4,0.9,0.6,1.3,0.7c0.3,0,0.8-0.4,1-0.7
	c0.2-0.4,0.3-1,0.4-1.5c0.3-1.4,0.6-2.7,1-4.1c0.1-0.4,0.5-0.7,0.9-1.2c1.1,1.1,1.7,2.3,2,3.6c0.5,2.3,1,4.6,1.5,7
	c0.1,0.6,0.1,1.3,0.3,1.9c0.2,0.4,0.7,0.9,1.1,1c0.4,0.1,1.1-0.2,1.3-0.6c0.4-0.6,0.6-1.3,1-2c0.8-1.7,1.5-3.4,2.3-5
	c0.6-1,1.3-2,2.1-2.8c0.8-0.8,1.9-0.8,2.5,0.2c0.6,0.9,1.1,1.9,1.5,2.9c1.5,4.9,1.2,9.6-1.2,14.1c-3.3,6.2-8.4,10.8-13.9,14.9
	C272.4,82.8,270.2,82.2,268.1,81.7z M320.7,207.1c-1.4,0.8-2.8,0.8-4.1,0.3c-0.6-0.2-1.1-0.6-1.7-0.8c-0.9-0.3-1.8,0.6-1.5,1.5
	c0.1,0.6,0.5,1.2,0.7,1.8c0.3,1.2,0.9,2.5,0.1,3.7c-4.3,0.3-7.3-1.3-9.2-5.1c-1.8-3.6-2.8-7.4-2.2-11.5c0.1-0.7,0-1.5,0-2.3
	c0.2-2.3,0.4-4.5,0.6-6.8c0.1-0.6,0.3-1.3,0.5-1.9c0.4-1,1.4-1.3,2.4-0.8c0.8,0.4,1.4,1.1,1.6,1.9c0.2,0.9,0.1,1.9,0.1,2.9
	c0,0.6-0.2,1.3-0.2,1.9c0.1,0.6,0.4,1.2,1.1,1.4c0.7,0.2,1.3-0.1,1.6-0.7c0.5-0.8,1-1.3,1.8-1.7c1.7-0.8,3.4-1.8,5.2-2.5
	c1.1-0.5,2.3-1.1,3.6-0.8c0.8,3.3,0.5,4.3-1.8,5.9c-0.3,0.2-0.6,0.3-0.8,0.5c-0.8,0.6-1.1,1.3-0.8,1.9c0.3,0.7,0.9,0.9,1.6,0.9
	c0.5,0,1.1-0.1,1.6-0.1c0.7,0.1,1.1,0.6,1.3,1.3c0.2,0.7-0.2,1.3-0.8,1.6c-0.8,0.3-1.6,0.6-2.4,0.9c-0.7,0.2-1.4,0.4-2.1,0.7
	c-0.8,0.4-1,1.6-0.3,2.2c0.5,0.4,1.1,0.7,1.6,1C319.2,204.9,320.2,205.5,320.7,207.1z M264,88.3c-4.1,0.1-8.1-0.8-12-1.8
	c-1.4-0.4-1.8-1.3-2-2.6c-0.6-4.4-1-8.8-0.8-13.3c0.1-2.3,0.5-4.5,1.8-6.5c1.1-1.7,2.5-2.1,4.1-0.9c1.3,1,2.4,2.1,3.4,3.4
	c2.4,3.2,4.2,6.8,5.5,10.6c0.7,2.2,1.3,4.3,1.5,6.6C265.6,85.4,265.4,86.8,264,88.3z M275.9,93.5c0.4-1.4,0.7-2.8,1.1-4.1
	c0.3-1.4,0.6-2.7,0.9-3.9c3-1.3,13.3-4.2,16.3-4.5c1-0.1,2.1-0.4,3.2,0.2c0.8,1.6,0.3,3.1-0.2,4.7c-1.5,4.9-3.5,9.5-5.9,14
	c-0.2,0.4-0.4,0.8-0.6,1.1c-1.1,1.5-2.3,1.8-3.9,1c-0.9-0.4-1.7-1-2.4-1.6C281.5,98.2,278.7,95.8,275.9,93.5z M300.2,173.4
	c0.7-1.2,1.2-2,1.8-2.8c2.7-4.1,5.1-8.5,6.7-13.2c0.5-1.3,0.8-2.7,1.3-4c0.7-2,2.2-2.9,4.3-2.4c2.6,0.6,4.5,2.1,5.1,4.8
	c1.3,5.3-0.4,9.9-4.1,13.6c-3.5,3.4-8,4.4-12.7,4.6C301.9,173.9,301.3,173.7,300.2,173.4z M178.4,167.2c0.3,0.4,0.8,0.9,1,1.5
	c1,2.2,1.4,4.5,1.7,6.9c0.1,0.9,0.1,1.8,1.1,2.1c1.2,0.4,1.6-0.7,2.2-1.5c0.7-1,1.5-2.1,2.4-3c0.3-0.3,1-0.2,1.4-0.1
	c0.3,0.1,0.5,0.7,0.6,1c0.1,1.2-0.3,2.4-1,3.3c-1.5,2.2-3.2,4.3-4.8,6.5c-1.6,2.2-3.9,2.8-6.5,2.8c-1.3,0-2.5,0-3.8,0.1
	c-2.4,0.1-4.7,0-6.9-0.8c-0.4-0.2-0.8-0.6-1.3-1c0.5-0.6,0.9-1,1.3-1.3c0.5-0.4,1.1-0.6,1.7-0.9c1.3-0.8,1.2-2-0.1-2.7
	c-0.5-0.3-1-0.4-1.4-0.7c-0.4-0.3-0.9-0.6-0.7-1.5c0.4-0.1,0.9-0.3,1.3-0.4c1.3-0.2,2.1,0.8,3.1,1.4c0.3,0.2,1.1,0.2,1.4-0.1
	c0.3-0.3,0.5-0.9,0.5-1.4c0-0.5-0.5-0.9-0.6-1.4c-0.3-1-0.7-2-0.9-3.1c-0.1-0.4,0.2-1.1,0.5-1.4c0.6-0.5,1.3-0.2,1.7,0.2
	c0.7,0.7,1.3,1.4,1.8,2.2c0.6,0.8,1,1.8,2.2,1.5c0.8-0.2,1-1,0.9-2.8c-0.1-1.3-0.2-2.6-0.2-3.9C177.1,168.1,177.3,167.3,178.4,167.2
	z M191.2,150.5c-1-0.6-1.5-0.8-1.9-1.1c-0.7-0.5-1.4-1.1-1.9-1.7c-3.9-5.1-6.4-10.7-6.2-17.3c0.1-2.9,1.3-5.2,3.4-7.1
	c1.7-1.5,4.2-1.5,5.7-0.4c1.7,1.3,3,2.9,2.3,5.2c-0.1,0.3-0.2,0.6-0.2,0.9c-1.3,5.8-1.7,11.7-1.2,17.7
	C191.1,147.8,191.1,148.9,191.2,150.5z M174.6,272.4c0.5,0,1.1-0.2,1.5,0c1.2,0.6,2.5,1.2,3.6,2.1c3.4,3,5.5,6.8,7,11.1
	c0.4,1.2,0.1,2.3-0.6,3.2c-0.3-0.1-0.6,0-0.7-0.1c-5-2.5-8.4-6.6-10.6-11.7C174.2,275.6,174,274,174.6,272.4z M268.5,306
	c2.4,0.4,3.3,1.7,3.4,3.8c0.2,3.7-0.8,7-3,10c-0.6,0.9-1.4,1.6-2.5,1.9c-0.9,0.3-1.7-0.2-2-1.1c-0.3-1.3-0.2-2.6,0.2-3.8
	c0.8-2.3,1.5-4.7,2.4-7C267.4,308.5,267.9,307.2,268.5,306z M266.5,91c1.2-2,1.3-4.3,2.8-6c2,0.3,3.8,0.9,5.1,2.8
	c-0.3,1.1-0.5,2.3-0.8,3.4c-0.4,1.3-1.1,1.6-2.5,1.5C269.6,92.5,268.2,92.1,266.5,91z"/>
<path class="st7" d="M237.4,167.4c0-1.1,0.1-2.2-0.1-3.2c-0.1-0.4-0.6-0.9-1-1.1c-0.5-0.2-1.3,0.4-1.4,1c-0.4,3-0.7,6,0.4,9
	c1.7,4.5,6.8,6.9,11.3,5.5c4.8-1.6,7.3-5.2,7.1-10.3c0-0.4-0.1-0.9-0.2-1.3c-0.2-0.8-1-1.3-1.7-1.1c-0.8,0.2-1,0.8-1,1.5
	c-0.1,1.3-0.1,2.6-0.4,3.8c-0.8,3.2-4.3,5.5-7.6,5c-2.1-0.3-4.7-2.7-5.1-4.8C237.4,170,237.4,168.7,237.4,167.4
	C237.4,167.4,237.4,167.4,237.4,167.4z"/>
<path class="st7" d="M265.4,159.3c0.2,2.5,2.5,4.5,5.1,4.3c2.3-0.2,4-2.3,3.9-4.7c-0.2-2.5-2.2-4.1-4.9-3.9
	C266.7,155.3,265.2,156.9,265.4,159.3z"/>
<path class="st7" d="M218.2,148.8c0.4,3.1,4.1,5.1,6.9,3.6c1.6-0.9,2.4-3,1.8-4.8c-0.9-2.5-4.2-4-6.6-2.9
	C218.8,145.3,218,147,218.2,148.8z"/>
<path class="st8" d="M344.1,434.3c-1.4,2.6-1.7,4.9-1.6,7.3c0.3,4.2,1.6,5.9,5.8,6.8c4.4,1,8.9,1.8,13.3,2.7
	c5.2,1.1,10.3,2.2,15.5,3.3c1.1-1.7,2-3.2,3.2-4.6c1.3-1.6,2.8-3.2,4.4-4.4c4.7-3.3,9.6-3.1,14.3,0.2c2.5,1.8,4.3,4.2,5.4,7
	c0.4,1,0.6,2,1,3.2c0.8,0.1,1.7,0.4,2.6,0.4c7.6-0.4,15.1-0.7,22.7-1.2c2-0.1,3.9-0.6,5.8-1c1.6-0.4,3.2-0.8,4.5-2.2
	c0.3-2.5-0.8-4.8-1.2-7.1c-1.2-1.1-2.4-0.6-3.6-0.5c-3.7,0.2-7.2-0.4-10.4-2.5c-5-3.3-6.4-10-2.9-14.9c2.2-3.1,5-5.2,9.1-4.8
	c0.7,0.1,1.5,0,2.2-0.1c-0.1-3.6-3.1-16.1-5.6-23.7c-1.1-0.2-2.2-0.5-3.4-0.8c-2.7-0.6-5.2-1.5-7.5-3.1c-2.9-2-4.5-4.7-4.5-8.3
	c-0.1-4.4,0.8-8.4,4.1-11.4c1.3-1.2,2.9-2,4.6-3.2c-0.2-3.8-1.2-7.6-2.9-11.4c-3.6-0.3-7,0.5-10.6,0.6c-0.8,1.1-1.5,2.3-2.2,3.3
	c-1.1,1.6-2.4,3.1-4.1,4.1c-3.5,1.9-7.1,1.8-10.2-0.7c-2-1.6-3.7-3.5-4.5-6c-0.3-0.8-0.6-1.7-0.9-2.5c-3.4-1.2-6.6-2.3-10-3.6
	c-1.6,2.2-2,4.7-3.4,6.9c1,0.7,1.8,1.1,2.5,1.6c3,2.1,4.8,4.9,5.8,8.3c1.9,6.5-2.5,14-9.2,15.8c-2.5,0.7-4.8,0.3-7.1-0.4
	c-1.1-0.3-2.2-0.9-3.5-1.5c-2.5,3.9-3.6,8.3-5.2,12.4c-1.6,4.2-3.1,8.4-4.8,12.8c0.6,0.3,1.1,0.6,1.6,0.7c5.6,1,8,5,9.2,9.9
	c1,3.8,0.1,7.1-3.1,9.7c-1.4,1.1-2.8,2.3-4.4,3.2c-2.9,1.6-6,2.1-9.1,0.6C345.5,434.9,344.9,434.7,344.1,434.3z M379.9,410.9
	c-0.2-5.8,2.6-10.6,7.6-13.3c4.2-2.3,9.1-1.4,12.5,2c4.6,4.5,4.5,13.7,1.9,17.5c-1.7,2.4-3.6,4.4-6.8,4.7c-4.8,0.4-8.9-1-12.3-4.5
	C380.9,415.4,380,413,379.9,410.9z"/>
<path class="st9" d="M416.4,283.9c-6.4-2.1-12.6-5.5-20-3.7c-0.7,1.8-1.2,3.4-1.9,5.1c-1,2.5-2.1,5-3.2,7.4c-1.3,2.7-3.2,5-5.8,6.8
	c-1.4,0.9-2.7,1.9-4,2.9c-9.4,7.3-24.9,5.8-34-2.2c-1.6-1.4-2.8-3.1-4.2-4.7c-1.1,0.2-0.8,1.1-0.7,1.7c0.6,7.2,2.3,14.1,5.6,20.6
	c4.1,8,8.6,15.7,15,22.3c9.4,9.7,20.9,15,34.4,16.1c15.3,1.2,29.8-1.7,43.7-8c9.7-4.3,18.7-9.7,26.9-16.5c9.8-8,16.6-18.1,20.9-29.8
	c0.2-0.5,0.2-1.1,0.3-1.8c-3-0.8-5.9-1.5-9.1-2.3c-0.3,0.7-0.8,1.4-1.1,2.2c-4,10-11.2,16.8-20.8,21.5c-21.5,7.8-38.7-6.4-41.2-22.4
	c-0.7-4.4-1.3-8.8-0.6-13.3C416.7,285.1,416.5,284.7,416.4,283.9z M391.5,308.5c1.3,0.1,3.6,0.4,5.8,0.6c5.4,0.6,10.8,1.2,16.2,1.7
	c1.5,0.1,2.6,0.6,3.3,1.9c0.8,1.3,1.3,2.7,1.2,4.2c-0.3,4.5-1.2,8.8-3.6,12.8c-2.6,4.1-6.1,6.3-11.1,6.7
	c-7.2,0.5-13.2-1.5-15.1-10.6c-0.8-3.9-1.6-7.9-2.4-11.8c-0.9-4.4-0.3-5.2,4.3-5.4C390.2,308.6,390.4,308.6,391.5,308.5z"/>
<path class="st9" d="M342,262.8c-3.9,4.9-3.5,10.3-2.4,15.8c2.1,10.3,8.8,17,17.6,22c2.6,1.5,5.5,2.2,8.7,2.1
	c5.5-0.1,10.4-1.6,14.6-5.1c0.5-0.4,0.9-0.8,1.4-1.1c3.8-2.1,5.7-5.6,7.3-9.4c1.7-4,3.1-8.1,3.8-12.4c0.8-4.5,0.5-8.9-0.7-13.2
	c-0.8-2.8-2.3-5.1-4.5-7.1c-2.8-2.4-6-3.9-9.5-5c-1.4-0.5-2.7-0.2-3.7,1c-1,1.1-2.1,2.2-3,3.4c-4.3,6.2-10.7,8.5-17.9,8.9
	C350,262.9,346.2,262.8,342,262.8z M364.4,274.2c-0.1-1.2,0.3-2.7,1.2-4.1c1.6-2.5,3.9-3.1,6.6-2.6c2.2,0.4,3.4,1.9,3.9,4.8
	c0.1,0.9,0.2,1.8,0.1,2.6c-0.4,3.2-3,5.2-6.3,5.1C366.9,280,364.6,277.8,364.4,274.2z"/>
<path class="st9" d="M444.9,262.1c-1.7-0.3-3.1,0.2-4.6,0.7c-9.4,2.9-20.6,15.1-19.7,28.4c0.2,2.7,0.5,5.3,1,8
	c2,11,13.2,22.3,29.5,19.7c3.8-0.6,7.3-1.9,10.5-4.1c4.4-3,8.1-6.7,11.1-11.1c2.1-3.1,2.5-4.6,2.7-8.1c-2.2-1.3-4.6-2.6-6.9-4
	c-7.9-4.7-14.3-11-18.8-19c-1.3-2.3-2.4-4.8-3.5-7.3C445.7,264.3,445.3,263.2,444.9,262.1z M434.9,289.9c-0.1-3.2,3.2-6.8,6.4-6.9
	c3.5-0.1,7.2,3.4,7.4,7.2c0.2,3.4-2.8,6.1-6.8,6.2C437.9,296.5,435.1,293.9,434.9,289.9z"/>
<path class="st9" d="M443.4,247.6c-1.4-0.3-2.7-0.7-4.1-1c-6-1.5-10.5-4.9-13.6-10.3c-2.8-4.9-4-10.2-4.9-15.7
	c-0.2-1.4-0.5-2.8-0.8-4.2c-1.6-0.1-1.6,1.1-2,1.8c-2.3,4.6-5.2,8.7-8.4,12.7c-5.2,6.5-11.8,11.1-19.4,14.3c-1.5,0.6-3,1.2-5,2
	c1.2,0.9,1.9,1.5,2.8,2c5.1,3.3,8,7.9,9.1,13.8c0.7,3.8,0.8,7.7,0.4,11.7c3.5,0.6,7,1,10.3,1.8c3.4,0.8,6.6,2,10.1,3.1
	c5.3-11.2,13-19.5,25.9-22.2C443.6,254.3,443.5,251.2,443.4,247.6z"/>
<path class="st9" d="M292.8,412.8c2.7,0.2,4.5,0.3,6.3,0.4c1.1,0.1,2.1,0.2,2.6,1.4c0.4,1,0,2-1.3,3c-0.7,0.6-1.5,1-2.2,1.6
	c-0.7,0.6-1.4,1.2-1.8,2c-0.2,0.4-0.1,1.1,0.1,1.6c0.1,0.2,0.8,0.4,1.2,0.3c1.1-0.4,2.2-0.9,3.3-1.5c0.9-0.5,1.8-1.1,2.8-1.4
	c0.6-0.2,1.6,0,2,0.4c0.4,0.4,0.7,1.4,0.5,2c-0.2,1.1-0.9,2.2-1.2,3.3c-0.3,0.9,0.4,1.8,1.5,1.8c1.3,0,2.5-0.1,2.9-1.6
	c0.4-1.4,0.9-2.7,2.7-2.4c1.5,0.3,1.6,1.5,1.8,2.7c0.5,2.3,3.2,3.4,5.3,2.3c0.5-0.3,0.9-0.8,1.1-1.4c0.8-2.7,1.2-5.5,0.8-8.4
	c-0.5-3.1-1-6.2-1.6-9.3c-0.2-1.1-0.6-1.9-1.3-2.7c-1.7-2.1-3.5-4-3.9-6.9c-0.1-0.8-0.8-1.6-1.5-2.2c-4-3.2-8.4-5.2-13.7-5.2
	c-2.6,0-3.5,1.2-3.1,3.7c0.2,1.6,0.9,2.9,2.1,3.8c0.9,0.7,2,1.4,3,2.1c0.9,0.6,1.7,1.4,1.3,2.6c-0.3,1-1.1,1.3-2.1,1.4
	C296.7,406.8,295.1,409.5,292.8,412.8z"/>
<path class="st9" d="M477.2,329.7c2.6,1,4.9,0.9,7.1,0.9c3.8,0,7.5-0.6,11.2-1.8c3.4-1.1,6.4-2.8,8.8-5.4c3.4-3.6,5.2-7.7,3.9-12.7
	c-0.5-2-0.8-4.1-1.6-6c-0.7-1.6-1.8-3.1-3-4.4c-1.8-2-4.2-2.3-6.7-1.7c-0.7,0.2-1.4,0.6-1.8,1.2c-0.7,0.9-1.4,1.9-1.8,3
	c-3.5,9.3-8.3,17.9-15.1,25.3C477.9,328.5,477.7,328.9,477.2,329.7z"/>
<path class="st9" d="M459.1,440.4c1.6-0.5,1.7-1.7,2-2.9c0.6-2.5,1.3-3.4,2.5-3.1c2,0.6,1.7,2.2,1.7,3.7c0.1,1.3,0.1,2.7,0.4,4
	c0.1,0.7,0.6,1.3,0.9,1.8c1.9,0.3,2.7-0.7,3.4-1.9c0.6-1.2,0.9-2.5,1.6-3.7c0.3-0.6,1.1-1.2,1.7-1.2c0.6,0,1.4,0.5,1.8,1.1
	c0.5,0.7,0.7,1.7,1.2,2.4c0.8,1,1.8,1.9,2.9,2.7c0.4,0.3,1.2,0.2,1.7,0c0.9-0.3,0.9-1.2,0.7-1.9c-0.8-2.1-1.6-4.2-2.5-6.2
	c-0.5-1.1-1.2-2.1-1.6-3.2c-0.5-1.3,0.9-2.9,2.2-2.6c1.3,0.3,2.6,0.9,3.8,1.4c1.5,0.6,3,1.5,4.5,2c0.9,0.3,2,0.2,3.3,0.3
	c-0.7-3-2.3-4.9-4.4-6.4c-0.7-0.5-1.7-0.6-2.5-0.8c-0.9-0.2-1.8-0.2-2.7-0.4c-1-0.3-1.6-0.9-1.4-2c0.1-1,0.9-1.6,1.8-1.7
	c0.9-0.1,1.8-0.1,2.7-0.1c3.9-0.1,6.5-2.1,8.4-5.3c0.8-1.4,0.1-2.7-1.5-3c-0.1,0-0.3-0.1-0.5-0.1c-7.7-0.1-15,1.3-21.6,5.7
	c-3.2,2.1-5.6,4.9-7.3,8.3c-1.3,2.4-2.5,4.8-3.7,7.2c-0.7,1.4-0.8,2.9-0.4,4.3C458.4,439.5,458.8,440,459.1,440.4z"/>
<path class="st9" d="M338.4,299.7c-0.4-4.4-0.7-8.7-1.2-13c-0.1-1-0.5-2-0.8-3c-2.3-6.4-2.3-12.8-0.3-19.3c0.3-1,0.5-2,0.5-3
	c0-3-1.6-4.6-4.7-4.8c-2.5-0.1-4.8,0.6-6.7,2.3c-3.5,3.1-5.2,7-5,11.6c0.2,4.5,1.2,8.9,3.5,12.8c3.4,5.8,7.6,11.1,12.5,15.8
	c0.3,0.3,0.7,0.5,1.1,0.8C337.5,299.8,337.6,299.8,338.4,299.7z"/>
<path class="st10" d="M472.8,333.3c2.5,0.5,4.5,0.9,6.4,1.3c1.9,0.5,3.9,1.1,5,2.8c3.3,5.2,6.6,10.4,9.7,15.7c1.2,2,2,4.4,2.4,6.7
	c0.9,4.9-1.2,7-6.2,6.7c-1.5-0.1-3-0.6-4.3-1.2c-1.6-0.8-3.1-1.8-4.6-2.8c-1-0.6-2-1.4-3-2c-2.1-1.2-3.5-0.5-3.9,1.8
	c-0.2,1.2-0.2,2.4-0.5,3.5c-0.6,2.2-1.1,4.4-2.1,6.3c-2.3,4.8-4,3.5-6.3,1.1c-1.1-1.2-2.3-2.4-3.6-3.4c-1.8-1.4-3.7-1.1-5.2,0.6
	c-0.9,1-1.6,2.2-2.3,3.3c-0.7,1-1.2,2.1-1.9,3.1c-1.4,2.1-3.4,3-5.9,2.5c-4.2-0.8-7.7-2.6-9.4-6.8c-0.5-1.2-0.9-2.5-1.2-3.8
	c-0.9-3.5-1.7-7-2.5-10.5c-0.2-0.7-0.1-1.4-0.1-2.4C447.6,350.6,461.1,343.5,472.8,333.3z"/>
<path class="st10" d="M318.2,331.3c0.1-1.3,0.4-2.7,1-3.9c0.8-1.6,1.8-3.2,3-4.4c3.7-3.7,7.6-7.2,11.6-10.7c1.7-1.5,3.6-2.7,6.1-3.5
	c1.1,2.7,2,5.1,3,7.4c4.5,10,10,19.4,17.8,27.3c2.7,2.8,2.8,4.3,0.8,7.5c-2.8,4.5-6.8,7.6-11.9,9.2c-5.2,1.6-8.9-0.1-10.8-5.1
	c-0.9-2.3-2.4-3.3-4.8-3.1c-0.7,0.1-1.5,0.1-2.3,0c-3.3-0.3-4.7-2-3.8-5.1c0.3-1.1,0.9-2.2,1.5-3.2c0.6-1.1,1.3-2,1.8-3.1
	c0.7-1.6-0.2-3.1-1.9-3.3c-1.1-0.1-2.1,0.1-3.2,0c-1.3-0.1-2.7-0.1-4-0.5C319.3,336.1,318,334.3,318.2,331.3z"/>
<path class="st10" d="M346.3,250.1c-0.6,0.5-1.4,0.9-2.6,1.7c1.3-5.3,2.8-9.8,4.7-14.2c4.8-10.7,12.2-19.5,20.9-27.4
	c5.8-5.2,12.3-9.1,19.7-11.8c5.9-2.1,12-3.3,18.1-4c5.8-0.6,11.5-0.4,17.1,1.1c6.4,1.7,12.8,3.4,19.1,5.8
	c8.3,3.2,15.7,7.6,21.7,14.2c1.4,1.6,2.7,3.4,4.5,4.4c2.9,1.6,4.7,4.2,6.4,6.8c4,6,7.3,12.3,10.2,18.9c5.1,11.8,7.6,24.2,7.1,37
	c-0.2,4.1-0.7,8.3-2.1,12.2c-4.1,0.6-7.4-0.4-10.4-2.1c-0.8-4.8-1.5-9.4-2.3-13.9c-1-5.6-3.4-10.5-8-14.1c-5.4-4.4-11.5-7-18.6-7.6
	c-1-0.1-2.1-0.2-3.1-0.2c-1.4-4-1.4-5.1-0.4-9.3c0.7-2.7,0.2-3.5-2.5-4c-1.9-0.4-3.9-0.6-5.8-1.1c-4.7-1.1-8.2-3.7-10.5-7.8
	c-2.1-3.7-3.4-7.6-4.1-11.8c-0.8-4.6-1.5-9.1-1.5-13.8c0-1-0.2-2.1-0.5-3.1c-0.4-1.2-2.1-1.6-3-0.8c-1.2,1.1-2.3,2.2-3,3.9
	c-1.2,3.1-2.5,6.1-4.1,9c-6.5,12.1-15.9,21-29.5,25c-3.5,1-7,2-10.6,0.9c-0.9-0.3-1.8-0.3-2.7-0.4
	C361.7,242.8,353.3,244.1,346.3,250.1z"/>
<path class="st10" d="M450.1,261.7c0.3-0.1,0.5-0.3,0.8-0.3c9,0.2,15.8,4.4,21,11.3c0.4,0.6,0.7,1.3,1,2c1.8,4.9,2.4,10.1,3.2,15.7
	C464.2,286.3,450.5,271,450.1,261.7z"/>
<path class="st10" d="M345,258.5c3.8-7.8,16.1-12.8,25.2-9.9c-0.8,1.1-1.6,2.2-2.4,3.2c-2.2,3-5.2,4.8-8.9,5.8
	C354.5,258.7,350,258.5,345,258.5z"/>
<path class="st11" d="M394.8,514.2c7.3,2,17.4-0.4,22.3-5.1c0-1.2-0.9-1.9-2-2.1c-4.5-1-9-1.3-13.5-0.5c-2,0.3-3.7,1.3-5.1,2.7
	C395.1,510.6,394.3,512.1,394.8,514.2z"/>
<path class="st11" d="M311.5,483.7c1-1.1,1-2.1,0.5-3.1c-2.6-5-5.6-9.8-9.9-13.7c-1.3-1.2-2.7-2.3-4.9-2.1c-0.2,0.9-0.6,1.8-0.6,2.6
	c0.1,1.5,0.4,3,0.9,4.3C299.5,476.7,305.7,482,311.5,483.7z"/>
<path class="st9" d="M428.4,378.3c-0.1-0.2-0.2-0.4-0.3-0.6c0,0.1,0,0.2,0.1,0.3c0.1,0.1,0.2,0.1,0.4,0.2
	C428.5,378.2,428.4,378.3,428.4,378.3z"/>
<path class="st12" d="M369.9,384.4c4,0,8.7-6,8.1-9.6c-0.5-2.7-1.5-5.1-3.6-7c-1.9-1.8-3.6-1.6-4.7,0.6c-1.9,3.7-3.8,7.5-5.5,11.2
	c-0.8,1.7-0.3,2.9,1.5,3.6C367,383.8,368.5,384,369.9,384.4z"/>
<path class="st12" d="M345.5,429.8c2,2.3,4.2,2.9,6.9,1.6c0.8-0.4,1.6-0.8,2.4-1.3c5.1-3.3,5.5-8.9,1-13.1c-2.3-2.1-5.4-1.6-6.5,1.3
	C347.8,422.1,346.5,425.9,345.5,429.8z"/>
<path class="st12" d="M438.7,439.2c-0.7-3.3-1.3-6.5-2.1-9.7c-0.7-3.1-4.4-4.8-7.5-3.5c-2.6,1.1-3.7,3.4-4.1,6
	c-0.4,2.6,0.5,4.6,2.8,6.1C431.3,440.3,434.8,440.7,438.7,439.2z"/>
<path class="st12" d="M382.4,455.1c6.4,1.2,12.4,1.5,18.6,1.1c-0.7-5-4.2-8.7-8.6-9.2c-1-0.1-2.1,0.1-3.1,0.4
	C385.9,448.6,384.4,450.3,382.4,455.1z"/>
<path class="st12" d="M423.1,375.5c-1.3,0.7-2.1,0.9-2.7,1.5c-1.5,1.3-2.4,3-2.8,5c-1.3,6.2,1.3,10.1,7.7,11.2
	c1.1,0.2,2.1-0.7,1.8-1.9c-0.8-3.5-1.6-6.9-2.5-10.4C424.2,379.3,423.7,377.7,423.1,375.5z"/>
<path class="st12" d="M391.3,359.8c1.3,3.1,2.9,5.1,5.9,5.3c1.1,0.1,2.3-0.4,3.3-1c1.1-0.6,2.1-1.6,2.2-3.4
	C399,360.5,395.4,360,391.3,359.8z"/>
<path class="st12" d="M399.9,409.2c-0.4-1.6-0.7-3.2-1.3-4.7c-1.9-4.2-6.8-5.3-10.6-2.6c-1.9,1.4-3.2,3.1-3.8,5.4
	c-1.6,6.2,4.2,12,10.6,10.6c1.1-0.2,2.2-1.1,2.9-1.9C399.5,414.1,399.8,411.7,399.9,409.2z"/>
<path class="st13" d="M413.5,316.5c-2.6-1.4-5.1-1.8-7.7-2c-4.2-0.4-8.4-1.1-12.6-1.6c-0.9-0.1-1.7-0.1-2.9-0.1
	c0,0.9-0.1,1.6,0.1,2.3c0.8,3.8,1.5,7.6,2.4,11.3c0.8,3.4,3.2,5.3,6.7,5.6c7.4,0.7,10.2-1.8,12.5-7.1
	C413.2,322.4,413.9,319.6,413.5,316.5z"/>
<path class="st14" d="M341.7,293c-0.3-7,4.4-13.5,11.7-13.6c6.9-0.1,12.6,6.2,14.1,12.6c1.1,4.8-0.1,9.8-3.3,13
	c-3.8,5.3-11.3,5.3-16.1,1.1C344.1,303.3,341.9,297.9,341.7,293z"/>
<path class="st14" d="M443.1,307.7c3.7-7.5,12.1-8.9,19.1-5.3c6.6,3.3,9.7,10.7,8.6,17.8c-1,6.3-6.6,9.7-12.4,10.6
	c-4.2,0.6-9.3-1.3-12.1-4.5c-0.5-0.6-0.9-1.2-1.3-1.8C441.5,319.8,440.5,312.9,443.1,307.7z"/>
<path class="st15" d="M428.4,378.3c0.7,0.8,1.4,1.4,1.9,2.3c3.5,5.8,7.3,11.3,11.6,16.5c4.2,5.1,8.4,10.2,12.7,15.2
	c2.2,2.6,4.7,5,7.3,7.7c-1,1.8-2,3.5-3,5.4c-1.4,2.6-2.9,5.2-4.2,7.9c-1.3,2.9-1.1,5.8,0.3,8.6c1.4,2.8,2.4,3.2,5.8,2.6
	c0.3-0.1,0.6,0,1,0c0.5,0.6,1,1.4,1.6,2c2,2,4.2,2.3,6.5,0.8c1.2-0.8,2.3-1.9,3.6-2.9c1,0.7,2,1.5,3,2c1.2,0.6,2.5,1.1,3.8,1.2
	c3.2,0.2,5.1-1.7,5-4.9c0-1-0.1-2.1-0.3-3.1c-0.2-1-0.5-2-0.9-3.2c1.5-0.6,2.5,0.3,3.6,0.5c1.8,0.4,3.6,0.6,5.4-0.1
	c1.4-0.6,2.1-1.6,2.1-3.1c0-2-0.7-3.8-1.8-5.4c-0.8-1.2-1.7-2.4-2.6-3.7c0.9-0.8,1.8-1.3,2.5-2.1c1.2-1.3,2.5-2.7,3.3-4.2
	c2.1-3.8,0.2-7.7-4.2-8.4c-1.8-0.3-3.6-0.3-5.4-0.2c-7.5,0.6-14.6,2.4-20.8,6.9c-2.2-0.2-3.7-1.4-5-2.8c-1.8-2-3.7-3.9-5.4-6
	c-5.7-7-11.5-13.9-16.8-21.1c-3.2-4.3-5.8-9.1-8.4-13.8c-2.5-4.6-4.6-9.3-7.1-14.3c1.5-0.4,2.9-0.8,4.2-1.2c1.2,1.4,1.5,2.9,1.9,4.3
	c0.7,2.9,1.3,5.8,2.1,8.7c0.7,2.8,1.7,5.5,3.7,7.6c3.1,3.4,7.1,5,11.6,5.4c2.7,0.2,5.1-0.9,6.9-2.9c1-1.1,1.8-2.4,2.7-3.6
	c0.8-1.1,1.4-2.3,2.3-3.7c0.9,0.6,1.6,1.1,2.2,1.6c1,0.9,1.9,1.9,2.9,2.8c3,2.4,6.2,2.2,8.8-0.7c1.7-1.9,2.8-4.2,3.6-6.7
	c0.4-1.4,0.8-2.9,1.3-4.6c0.7,0.3,1.4,0.5,2,0.8c1.6,0.9,3.1,1.9,4.7,2.7c3.3,1.6,6.7,1.7,10.2,0.6c3.8-1.2,5.7-3.8,5.7-7.7
	c0-3.8-1.2-7.4-3.1-10.6c-1.9-3.4-4.1-6.6-6.2-9.9c-1.3-2-2.7-3.9-3.5-6.4c2.2-0.9,4.3-1.1,6.3-1.5c4.5-1,8.6-2.9,12-6
	c5-4.5,7.6-10,6.4-16.8c-0.4-2.2-0.8-4.4-1.5-6.5c-2.4-7.1-6.5-10-14.4-10.2c-0.1-0.8-0.3-1.7-0.1-2.5c3-16.7-0.1-32.6-6.7-48.1
	c-2.7-6.5-6.1-12.6-10-18.6c-2.8-4.3-6.2-8.1-10.1-11.5c-6.2-5.3-12.6-10.2-20.1-13.8c-1.5-0.7-3-1.3-4.6-1.9
	c-1.1-0.4-2.3-0.7-3.4-1.2c-5.2-2.5-10.9-3.6-16.4-5c-8-2.1-16.2-1.9-24.3-0.5c-5.5,1-10.9,2.4-16.2,4.5c-6,2.4-11.4,5.6-16.2,9.7
	c-10.1,8.6-18.5,18.5-24,30.6c-2.3,5.1-3.8,10.4-5.3,15.7c-0.2,0.8-0.6,1.6-0.9,2.7c-0.9-0.4-1.5-0.8-2.2-1
	c-5.2-2.1-9.8-1.1-13.9,2.5c-4.4,4-6.5,8.9-6.2,14.8c0.3,5.8,1.8,11.2,4.9,16.1c3.6,5.7,7.8,11,12.7,15.7c1,0.9,1.9,1.8,3.1,3
	c-0.8,0.6-1.3,1.1-1.9,1.4c-6,3.9-11.2,8.7-15.9,13.9c-2.4,2.6-3.9,5.6-4.7,9.1c-0.9,4.3,1.2,9.3,6.9,11c0.7,0.2,1.5,0.3,2.2,0.5
	c0.7,0.2,1.4,0.3,2.4,0.6c-0.6,1.5-1.1,2.7-1.5,3.9c-1.8,5.7,1,9.8,7,10.3c1.1,0.1,2.1,0.1,3.3,0.2c0.5,1.1,1,2.1,1.6,3.2
	c1.6,2.8,4,4.4,7.2,5c3.4,0.6,6.6,0.3,9.8-1.2c5.7-2.6,10.2-6.4,12.8-12.1c0.2-0.5,0.6-1,0.9-1.7c0.6,0.3,1.2,0.5,1.7,0.8
	c1,0.7,1.9,1.4,3.1,2.2c-0.6,1-1,1.9-1.6,2.7c-7.3,9.3-14.6,18.7-22.1,27.9c-5.3,6.6-11.4,12.4-19.1,16.4c-2,1-4.1,2-6.2,2.8
	c-1.8,0.7-2.7,0.3-3.6-1.5c-0.1-0.3-0.2-0.5-0.3-0.8c-1.3-3.8-4.1-6.2-7.6-7.9c-3.3-1.6-6.6-3-10.3-3.2c-0.5,0-0.9-0.1-1.3-0.1
	c-5.4,0-8.5,3.7-7.2,8.9c0.3,1.1,0.8,2.3,1.3,3.3c0.5,0.9,1.2,1.7,2.1,2.9c-1.1,1-2.3,1.9-3.3,3c-1,1.1-1.9,2.3-2.6,3.6
	c-1.1,2.2-0.5,4,1.5,5.4c0.7,0.5,1.6,0.8,2.6,1.4c-0.4,0.8-0.9,1.6-1.2,2.3c-1.9,4.4,0.2,7.5,4.9,7.4c0.9,0,1.8-0.2,2.6-0.2
	c0.3,0.2,0.6,0.4,0.7,0.6c1.8,3.6,3.4,4.6,7.1,3.9c2.2-0.4,4-0.3,6,0.8c1.1,0.6,2.6,0.8,4,0.8c3.3,0.1,5.5-1.5,6.3-4.7
	c0.9-3.8,1.5-7.6,0.6-11.5c-0.8-3.3-1.2-6.7-1.7-10.2c1.5-0.7,2.8-1.4,4.2-2c6.7-3,12.5-7.3,17.7-12.4c4.8-4.8,8.9-10.2,13.1-15.5
	c1.9-2.3,3.7-4.7,5.6-7.1c0.9,1,0.1,1.7-0.2,2.2c-6.6,12.5-10.9,25.9-15.9,39c-2.9,7.8-5.5,15.7-8.1,23.7c-1,3.2-1.3,6.4-0.7,9.7
	c0.7,3.9,3,6.4,6.8,7.6c1.6,0.5,3.2,0.8,5.2,1.3c-0.8,1.2-1.3,2.3-2,3.2c-2.8,3.7-5.7,7.4-8.6,11c-4.6,5.7-9.9,10.5-16.7,13.5
	c-2,0.9-4.1,2-6.5,2c-2.1-6.4-5.9-11.7-10.1-16.8c-1.3-1.6-3.2-2.7-4.9-4c-0.5-0.4-1.1-0.6-1.6-0.8c-4.2-1.1-7.4-0.3-7.8,5.1
	c-0.2,2.7,0.4,5.4,1.7,7.8c3.2,5.9,7.9,10.1,14,12.9c2,0.9,3.9,0.8,6.2,0.5c10.2-1.3,18.1-6.4,25-13.5c2.4-2.5,4.6-5.2,6.8-7.8
	c2.1-2.6,4.1-5.2,6-7.8c1.1-1.4,2-2.9,3-4.5c8.7,1.7,17.4,3.4,26.2,5.1c8.6,1.7,17.5,0.8,26.3,1.5c1.7,14.1,2.3,28.1,6.9,41.3
	c-1.9,1.1-3.4,0.4-4.9,0.4c-3.2-0.2-6.3-0.3-9.5,0.5c-2.9,0.7-5.3,2.1-7.3,4.2c-1.8,2-2.6,4.3-2.4,7c0.2,2.2,1.3,3.6,3.4,4.3
	c1.1,0.4,2.4,0.6,3.6,0.7c7.7,0.3,14.7-1.7,21.1-5.7c2.1-1.3,3.7-3,4.3-5.6c0.3-1.4,0-2.5-1.4-2.9c-1.9-0.6-2.6-1.9-3.1-3.5
	c-2-6.7-3.7-13.5-4.5-20.5c-0.8-6.7-1.4-13.3-2.1-20.2c1.1-0.2,2.1-0.4,3.1-0.5c5.7-0.5,11.5-0.9,17.2-1.4c3.3-0.3,6.6-1,9.6-2.5
	c3.2-1.7,4-3,3.2-6.5c-2.8-12.5-5.6-25.1-8.5-37.5c-2.4-9.9-5-19.7-7.5-29.5c-0.4-1.4-0.4-2.9-0.6-4.4c-0.1-0.1-0.3-0.1-0.4-0.2
	c-0.1-0.1-0.1-0.2-0.1-0.3C428.2,378,428.3,378.2,428.4,378.3z M448.9,256.9c-1.4-4-1.4-5.1-0.4-9.3c0.7-2.7,0.2-3.5-2.5-4
	c-1.9-0.4-3.9-0.6-5.8-1.1c-4.7-1.1-8.2-3.7-10.5-7.8c-2.1-3.7-3.4-7.6-4.1-11.8c-0.8-4.6-1.5-9.1-1.5-13.8c0-1-0.2-2.1-0.5-3.1
	c-0.4-1.2-2.1-1.7-3-0.8c-1.2,1.1-2.3,2.2-3,3.9c-1.2,3.1-2.5,6.1-4.1,9c-6.5,12.1-15.9,21-29.5,25c-3.5,1-7,2-10.6,0.9
	c-0.9-0.3-1.8-0.3-2.7-0.4c-8.9-0.9-17.2,0.5-24.3,6.4c-0.6,0.5-1.4,0.9-2.6,1.7c1.3-5.3,2.8-9.8,4.7-14.2
	c4.8-10.7,12.2-19.5,20.9-27.4c5.8-5.2,12.3-9.1,19.7-11.8c5.9-2.1,12-3.3,18.1-4c5.8-0.6,11.5-0.4,17.1,1.1
	c6.4,1.7,12.8,3.4,19.1,5.8c8.3,3.2,15.7,7.6,21.7,14.2c1.4,1.6,2.7,3.4,4.5,4.4c2.9,1.6,4.7,4.2,6.4,6.8c4,6,7.3,12.3,10.2,18.9
	c5.1,11.8,7.6,24.2,7.1,37c-0.2,4.1-0.7,8.3-2.1,12.2c-4.1,0.6-7.4-0.4-10.4-2.1c-0.8-4.8-1.5-9.4-2.3-13.9c-1-5.6-3.4-10.5-8-14.1
	c-5.4-4.4-11.5-7-18.6-7.6C450.9,257.1,449.8,257,448.9,256.9z M344.1,434.3c0.9,0.4,1.4,0.6,1.9,0.8c3.2,1.4,6.2,1,9.1-0.6
	c1.6-0.9,3-2,4.4-3.2c3.1-2.6,4-5.9,3.1-9.7c-1.3-4.9-3.6-8.9-9.2-9.9c-0.5-0.1-1-0.4-1.6-0.7c1.6-4.4,3.1-8.6,4.8-12.8
	c1.6-4.1,2.7-8.5,5.2-12.4c1.3,0.6,2.4,1.1,3.5,1.5c2.3,0.7,4.7,1.1,7.1,0.4c6.7-1.9,11.1-9.3,9.2-15.8c-1-3.4-2.9-6.2-5.8-8.3
	c-0.7-0.5-1.5-1-2.5-1.6c1.4-2.2,1.8-4.7,3.4-6.9c3.4,1.2,6.6,2.3,10,3.6c0.3,0.8,0.6,1.6,0.9,2.5c0.8,2.5,2.5,4.4,4.5,6
	c3.1,2.4,6.7,2.6,10.2,0.7c1.8-1,3-2.5,4.1-4.1c0.8-1.1,1.5-2.2,2.2-3.3c3.6-0.2,7-0.9,10.6-0.6c1.8,3.8,2.7,7.6,2.9,11.4
	c-1.7,1.2-3.3,2-4.6,3.2c-3.3,3.1-4.2,7.1-4.1,11.4c0,3.6,1.7,6.3,4.5,8.3c2.3,1.6,4.8,2.5,7.5,3.1c1.2,0.3,2.3,0.5,3.4,0.8
	c2.5,7.6,5.5,20.1,5.6,23.7c-0.7,0-1.5,0.1-2.2,0.1c-4.1-0.3-6.9,1.7-9.1,4.8c-3.5,5-2.1,11.6,2.9,14.9c3.2,2.1,6.7,2.7,10.4,2.5
	c1.2-0.1,2.4-0.6,3.6,0.5c0.4,2.3,1.6,4.6,1.2,7.1c-1.3,1.4-2.9,1.9-4.5,2.2c-1.9,0.4-3.9,0.9-5.8,1c-7.6,0.5-15.1,0.9-22.7,1.2
	c-0.9,0-1.7-0.2-2.6-0.4c-0.4-1.2-0.6-2.2-1-3.2c-1.2-2.8-2.9-5.2-5.4-7c-4.7-3.4-9.6-3.6-14.3-0.2c-1.7,1.2-3.1,2.8-4.4,4.4
	c-1.1,1.3-2,2.9-3.2,4.6c-5.1-1.1-10.3-2.2-15.5-3.3c-4.4-0.9-8.9-1.7-13.3-2.7c-4.2-0.9-5.6-2.6-5.8-6.8
	C342.4,439.2,342.7,436.9,344.1,434.3z M416.4,283.9c0.1,0.8,0.3,1.2,0.2,1.6c-0.7,4.5-0.1,8.9,0.6,13.3c2.5,16,19.7,30.2,41.2,22.4
	c9.6-4.7,16.9-11.5,20.8-21.5c0.3-0.8,0.8-1.5,1.1-2.2c3.2,0.8,6.1,1.6,9.1,2.3c-0.1,0.7-0.1,1.3-0.3,1.8
	c-4.3,11.7-11.1,21.8-20.9,29.8c-8.2,6.7-17.2,12.1-26.9,16.5c-13.9,6.2-28.4,9.1-43.7,8c-13.5-1.1-25-6.4-34.4-16.1
	c-6.4-6.6-10.8-14.3-15-22.3c-3.3-6.5-5.1-13.4-5.6-20.6c-0.1-0.7-0.4-1.5,0.7-1.7c1.4,1.6,2.6,3.3,4.2,4.7c9,8.1,24.5,9.6,34,2.2
	c1.3-1,2.7-2,4-2.9c2.5-1.8,4.4-4.1,5.8-6.8c1.2-2.4,2.2-4.9,3.2-7.4c0.7-1.6,1.3-3.3,1.9-5.1C403.8,278.4,410,281.8,416.4,283.9z
	 M342,262.8c4.2,0,7.9,0.1,11.7-0.1c7.2-0.4,13.6-2.7,17.9-8.9c0.9-1.2,2-2.2,3-3.4c1-1.1,2.3-1.4,3.7-1c3.5,1.1,6.8,2.6,9.5,5
	c2.2,1.9,3.7,4.2,4.5,7.1c1.2,4.4,1.5,8.8,0.7,13.2c-0.7,4.3-2.2,8.4-3.8,12.4c-1.6,3.8-3.5,7.2-7.3,9.4c-0.5,0.3-1,0.7-1.4,1.1
	c-4.2,3.6-9.2,5-14.6,5.1c-3.1,0.1-6.1-0.7-8.7-2.1c-8.9-4.9-15.5-11.7-17.6-22C338.5,273.1,338.2,267.7,342,262.8z M444.9,262.1
	c0.4,1.1,0.8,2.2,1.3,3.3c1.1,2.4,2.2,4.9,3.5,7.3c4.6,7.9,10.9,14.2,18.8,19c2.3,1.4,4.7,2.7,6.9,4c-0.2,3.5-0.7,5-2.7,8.1
	c-3,4.4-6.7,8.1-11.1,11.1c-3.2,2.2-6.7,3.5-10.5,4.1c-16.3,2.6-27.5-8.7-29.5-19.7c-0.5-2.6-0.8-5.3-1-8
	c-0.9-13.3,10.3-25.5,19.7-28.4C441.7,262.3,443.1,261.8,444.9,262.1z M443.4,247.6c0.1,3.5,0.2,6.6,0.4,9.8
	c-12.9,2.7-20.6,11.1-25.9,22.2c-3.5-1.1-6.7-2.3-10.1-3.1c-3.3-0.8-6.8-1.2-10.3-1.8c0.4-4,0.3-7.8-0.4-11.7
	c-1.1-5.9-4-10.5-9.1-13.8c-0.8-0.5-1.6-1.2-2.8-2c2-0.8,3.5-1.4,5-2c7.7-3.2,14.3-7.8,19.4-14.3c3.2-4,6.1-8.2,8.4-12.7
	c0.3-0.7,0.4-1.9,1.9-1.8c0.2,1.3,0.5,2.8,0.8,4.2c0.9,5.5,2.2,10.8,4.9,15.7c3,5.4,7.6,8.8,13.6,10.3
	C440.6,247,442,247.3,443.4,247.6z M472.8,333.3c2.5,0.5,4.5,0.9,6.4,1.3c1.9,0.5,3.9,1.1,5,2.8c3.3,5.2,6.6,10.4,9.7,15.7
	c1.2,2,2,4.4,2.4,6.7c0.9,4.9-1.2,7-6.2,6.7c-1.5-0.1-3-0.6-4.3-1.2c-1.6-0.8-3.1-1.8-4.6-2.8c-1-0.6-2-1.4-3-2
	c-2.1-1.2-3.5-0.5-3.9,1.8c-0.2,1.2-0.2,2.4-0.5,3.5c-0.6,2.2-1.1,4.4-2.1,6.3c-2.3,4.8-4,3.5-6.3,1.1c-1.1-1.2-2.3-2.4-3.6-3.4
	c-1.8-1.4-3.7-1.1-5.2,0.6c-0.9,1-1.6,2.2-2.3,3.3c-0.7,1-1.2,2.1-1.9,3.1c-1.4,2.1-3.4,3-5.9,2.5c-4.2-0.8-7.7-2.6-9.4-6.8
	c-0.5-1.2-0.9-2.5-1.2-3.8c-0.9-3.5-1.7-7-2.5-10.5c-0.2-0.7-0.1-1.4-0.1-2.4C447.6,350.6,461.2,343.5,472.8,333.3z M339.9,308.9
	c1.1,2.7,2,5.1,3,7.4c4.5,10,10,19.4,17.8,27.3c2.7,2.8,2.8,4.3,0.8,7.5c-2.8,4.5-6.8,7.6-11.9,9.2c-5.2,1.6-8.9-0.1-10.8-5.1
	c-0.9-2.3-2.4-3.3-4.8-3.1c-0.7,0.1-1.5,0.1-2.3,0c-3.3-0.3-4.7-2-3.8-5.1c0.3-1.1,0.9-2.2,1.5-3.2c0.6-1.1,1.3-2,1.8-3.1
	c0.7-1.6-0.2-3.1-1.9-3.3c-1.1-0.1-2.1,0.1-3.2,0c-1.3-0.1-2.7-0.1-4-0.5c-2.9-0.8-4.3-2.7-4-5.7c0.1-1.3,0.4-2.7,1-3.9
	c0.8-1.6,1.8-3.2,3-4.4c3.7-3.7,7.6-7.2,11.6-10.7C335.4,310.9,337.3,309.7,339.9,308.9z M292.8,412.8c2.3-3.4,3.9-6,7.5-6.4
	c1-0.1,1.8-0.5,2.1-1.4c0.4-1.2-0.4-2-1.3-2.6c-1-0.7-2-1.3-3-2.1c-1.2-1-1.9-2.3-2.1-3.8c-0.4-2.5,0.5-3.7,3.1-3.7
	c5.2,0,9.7,2,13.7,5.2c0.7,0.5,1.4,1.4,1.5,2.2c0.3,2.9,2.2,4.8,3.9,6.9c0.7,0.9,1.1,1.7,1.3,2.7c0.5,3.1,1.1,6.2,1.6,9.3
	c0.4,2.8,0,5.6-0.8,8.4c-0.2,0.5-0.6,1.1-1.1,1.4c-2,1.1-4.7,0-5.3-2.3c-0.3-1.2-0.4-2.5-1.8-2.7c-1.8-0.3-2.3,1-2.7,2.4
	c-0.4,1.4-1.6,1.6-2.9,1.6c-1,0-1.8-0.9-1.5-1.8c0.4-1.1,1-2.2,1.2-3.3c0.1-0.6-0.1-1.6-0.5-2c-0.4-0.4-1.4-0.5-2-0.4
	c-1,0.3-1.9,1-2.8,1.4c-1.1,0.5-2.2,1.1-3.3,1.5c-0.3,0.1-1.1-0.1-1.2-0.3c-0.2-0.5-0.3-1.2-0.1-1.6c0.5-0.7,1.1-1.4,1.8-2
	c0.7-0.6,1.5-1,2.2-1.6c1.3-1,1.7-2,1.3-3c-0.5-1.2-1.5-1.3-2.6-1.4C297.3,413.2,295.6,413,292.8,412.8z M477.2,329.7
	c0.5-0.8,0.7-1.2,0.9-1.6c6.8-7.4,11.6-16,15.1-25.3c0.4-1.1,1.1-2.1,1.8-3c0.4-0.5,1.2-1,1.8-1.2c2.5-0.6,4.9-0.3,6.7,1.7
	c1.2,1.3,2.3,2.8,3,4.4c0.8,1.9,1.1,4,1.6,6c1.3,5-0.5,9.1-3.9,12.7c-2.4,2.6-5.4,4.3-8.8,5.4c-3.6,1.2-7.4,1.8-11.2,1.8
	C482.1,330.6,479.8,330.8,477.2,329.7z M459.1,440.4c-0.3-0.4-0.7-0.9-0.9-1.4c-0.4-1.5-0.4-2.9,0.4-4.3c1.2-2.4,2.5-4.8,3.7-7.2
	c1.8-3.3,4.1-6.1,7.3-8.3c6.6-4.3,13.8-5.8,21.6-5.7c0.1,0,0.3,0,0.5,0.1c1.6,0.3,2.3,1.6,1.5,3c-1.9,3.2-4.5,5.2-8.4,5.3
	c-0.9,0-1.8,0-2.7,0.1c-0.9,0.1-1.7,0.7-1.8,1.7c-0.1,1,0.5,1.7,1.4,2c0.9,0.2,1.8,0.2,2.7,0.4c0.9,0.2,1.8,0.3,2.5,0.8
	c2.1,1.5,3.7,3.4,4.4,6.4c-1.3-0.1-2.4,0-3.3-0.3c-1.6-0.5-3-1.4-4.5-2c-1.2-0.5-2.5-1.1-3.8-1.4c-1.4-0.3-2.7,1.2-2.2,2.6
	c0.4,1.1,1.1,2.1,1.6,3.2c0.9,2,1.7,4.1,2.5,6.2c0.2,0.7,0.2,1.6-0.7,1.9c-0.5,0.2-1.3,0.2-1.7,0c-1.1-0.8-2-1.7-2.9-2.7
	c-0.6-0.7-0.7-1.7-1.2-2.4c-0.4-0.5-1.2-1.1-1.8-1.1c-0.6,0-1.4,0.6-1.7,1.2c-0.7,1.2-1,2.5-1.6,3.7c-0.6,1.2-1.5,2.3-3.4,1.9
	c-0.3-0.6-0.8-1.2-0.9-1.8c-0.2-1.3-0.3-2.7-0.4-4c-0.1-1.5,0.2-3.1-1.7-3.7c-1.2-0.3-1.8,0.5-2.5,3.1
	C460.8,438.7,460.7,439.9,459.1,440.4z M338.4,299.7c-0.7,0.1-0.9,0.2-1,0.1c-0.4-0.2-0.8-0.4-1.1-0.8c-4.9-4.8-9.1-10-12.5-15.8
	c-2.3-4-3.3-8.3-3.5-12.8c-0.2-4.6,1.5-8.4,5-11.6c1.9-1.7,4.1-2.5,6.7-2.3c3.1,0.2,4.7,1.8,4.7,4.8c0,1-0.2,2-0.5,3
	c-2,6.5-2,12.9,0.3,19.3c0.4,1,0.7,2,0.8,3C337.6,290.9,338,295.2,338.4,299.7z M476.1,290.3c-11.9-4-25.7-19.4-26.1-28.6
	c0.3-0.1,0.5-0.3,0.8-0.3c9,0.2,15.8,4.4,21,11.3c0.4,0.6,0.7,1.3,1,2C474.7,279.6,475.2,284.7,476.1,290.3z M369.9,384.4
	c-1.4-0.4-2.9-0.6-4.3-1.1c-1.8-0.7-2.3-1.9-1.5-3.6c1.8-3.8,3.6-7.5,5.5-11.2c1.1-2.2,2.9-2.4,4.7-0.6c2,1.9,3.1,4.3,3.6,7
	C378.6,378.3,374,384.4,369.9,384.4z M345,258.5c3.8-7.8,16.1-12.8,25.2-9.9c-0.8,1.1-1.6,2.2-2.4,3.2c-2.2,3-5.2,4.8-8.9,5.8
	C354.5,258.7,350,258.5,345,258.5z M345.5,429.8c0.9-3.9,2.2-7.7,3.7-11.4c1.1-2.9,4.2-3.5,6.5-1.3c4.6,4.2,4.2,9.7-1,13.1
	c-0.7,0.5-1.5,0.9-2.4,1.3C349.8,432.6,347.5,432.1,345.5,429.8z M438.7,439.2c-3.9,1.4-7.4,1.1-10.8-1.1c-2.3-1.5-3.1-3.5-2.8-6.1
	c0.4-2.6,1.5-4.8,4.1-6c3-1.3,6.7,0.3,7.5,3.5C437.4,432.7,438,435.9,438.7,439.2z M394.8,514.2c-0.5-2.2,0.3-3.7,1.7-5
	c1.4-1.4,3.2-2.3,5.1-2.7c4.5-0.8,9.1-0.6,13.5,0.5c1.1,0.2,1.9,0.8,2,2.1C412.2,513.8,402.1,516.2,394.8,514.2z M311.5,483.7
	c-5.8-1.7-12-7-13.9-12c-0.5-1.4-0.8-2.9-0.9-4.3c-0.1-0.8,0.3-1.6,0.6-2.6c2.2-0.2,3.6,0.9,4.9,2.1c4.3,3.9,7.3,8.6,9.9,13.7
	C312.5,481.6,312.5,482.6,311.5,483.7z M382.4,455.1c2-4.7,3.6-6.5,7-7.6c1-0.3,2.1-0.5,3.1-0.4c4.4,0.5,7.9,4.2,8.6,9.2
	C394.8,456.6,388.7,456.3,382.4,455.1z M423.1,375.5c0.6,2.2,1.1,3.8,1.4,5.3c0.9,3.5,1.7,6.9,2.5,10.4c0.3,1.2-0.7,2.1-1.8,1.9
	c-6.4-1.1-9-5-7.7-11.2c0.4-2,1.3-3.6,2.8-5C421,376.4,421.9,376.1,423.1,375.5z M391.3,359.8c4.1,0.2,7.7,0.8,11.5,0.9
	c-0.1,1.8-1.1,2.7-2.2,3.4c-1,0.6-2.2,1.1-3.3,1C394.3,364.8,392.6,362.9,391.3,359.8z"/>
<path class="st15" d="M379.9,410.9c0.1,2.1,1,4.5,2.9,6.4c3.4,3.5,7.5,4.9,12.3,4.5c3.2-0.3,5.1-2.2,6.8-4.7
	c2.6-3.8,2.7-13-1.9-17.5c-3.4-3.3-8.2-4.2-12.5-2C382.5,400.3,379.6,405.1,379.9,410.9z M399.9,409.2c-0.1,2.5-0.4,4.9-2.2,6.7
	c-0.8,0.8-1.9,1.7-2.9,1.9c-6.4,1.4-12.2-4.4-10.6-10.6c0.6-2.3,1.9-4,3.8-5.4c3.8-2.7,8.6-1.6,10.6,2.6
	C399.2,406,399.5,407.7,399.9,409.2z"/>
<path class="st15" d="M391.5,308.5c-1.1,0-1.2,0-1.4,0.1c-4.6,0.1-5.2,0.9-4.3,5.4c0.8,3.9,1.5,7.9,2.4,11.8c2,9.2,8,11.1,15.1,10.6
	c5-0.3,8.5-2.6,11.1-6.7c2.4-3.9,3.3-8.3,3.6-12.8c0.1-1.5-0.4-2.9-1.2-4.2c-0.8-1.3-1.8-1.7-3.3-1.9c-5.4-0.4-10.8-1.1-16.2-1.7
	C395.1,308.9,392.8,308.7,391.5,308.5z M413.5,316.5c0.3,3.1-0.4,5.8-1.5,8.4c-2.3,5.3-5.1,7.8-12.5,7.1c-3.6-0.3-5.9-2.2-6.7-5.6
	c-0.9-3.8-1.6-7.6-2.4-11.3c-0.1-0.7,0-1.4-0.1-2.3c1.2,0,2.1,0,2.9,0.1c4.2,0.5,8.4,1.2,12.6,1.6
	C408.4,314.7,410.9,315.2,413.5,316.5z"/>
<path class="st15" d="M364.4,274.2c0.2,3.6,2.5,5.8,5.5,5.9c3.3,0.1,5.9-2,6.3-5.1c0.1-0.9,0.1-1.8-0.1-2.6c-0.5-3-1.7-4.5-3.9-4.8
	c-2.7-0.4-5.1,0.2-6.6,2.6C364.7,271.6,364.3,273.1,364.4,274.2z"/>
<path class="st15" d="M434.9,289.9c0.2,4,3,6.7,7,6.6c4-0.1,7-2.9,6.8-6.3c-0.2-3.7-3.8-7.3-7.4-7.2
	C438.2,283.1,434.8,286.6,434.9,289.9z"/>
<path class="st16" d="M209.5,407.4c-1.3,0.6-2.7,1.2-4.1,1.8c-3.5,1.5-7.2,0.5-9.3-2.6c-0.7-1-1.2-2.2-1.7-3.4
	c-0.3-0.7-0.5-1.4-0.8-2.1c-0.7-1.3-2.1-1.6-3.1-0.7c-0.7,0.6-1.2,1.3-1.9,1.9c-2.8,2.3-7,2.1-9.6-0.6c-2.4-2.5-3.4-5.6-3.5-9
	c0-1.6,0.3-3.3,0.6-4.9c0.1-0.6,0.4-1.2,0.4-1.8c0-0.6-0.1-1.3-0.5-1.7c-0.4-0.3-1.2-0.4-1.7-0.2c-0.9,0.3-1.8,0.9-2.6,1.4
	c-2,1.1-4.2,1.5-6.5,1.2c-4.5-0.5-6.8-3-6.7-7.5c0-1.5,0.5-3,0.8-4.5c0.1-0.5,0.5-1,0.4-1.4c0-0.6-0.3-1.2-0.6-1.6
	c-0.3-0.3-1-0.3-1.4-0.1c-0.6,0.2-1.1,0.6-1.6,0.9c-2,1-3.9,2.3-6,3c-6,2.2-10.9-1.1-11.2-7.6c-0.1-1.5,0.3-3,0.5-4.5
	c0.1-0.6,0.5-1.2,0.4-1.8c-0.1-0.5-0.4-1.3-0.8-1.5c-0.4-0.2-1.2,0-1.7,0.2c-0.3,0.1-0.5,0.6-0.7,0.9c-2.5,3.1-5.9,4.6-9.6,5.7
	c-0.2,0.1-0.5,0.1-0.7,0.2c-5.1,0.7-8.6-2.1-8.8-7.3c-0.1-2.4,0-4.8,0.7-7.1c0.3-1,0.5-2,0.5-3c0-1.3-1.3-2-2.4-1.4
	c-0.7,0.5-1.4,1.1-2.1,1.6c-1.6,1-3.2,2.1-4.8,2.9c-1.7,0.8-3.6,0.7-5.5,0.3c-2.8-0.6-4.5-2.3-4.7-6c-0.2-3.6,1.2-6.7,3.4-9.4
	c0.6-0.7,1.4-1,2.3-1.1c1.3-0.1,2.4-0.7,3.2-1.8c0.3-0.5,0.5-1.2,0.5-1.7c-0.1-0.8-0.9-1.3-1.6-1.3c-0.8,0-1.8,0.1-2.5,0.5
	c-1.3,0.7-2.6,1-3.9,0.1c-1.6-1-2.6-2.4-2.9-4.2c-0.4-3.4,0.3-6.5,2.9-9c2.5-2.5,5.6-3.9,9-4.3c2.7-0.3,5.5-0.3,8.2-0.4
	c0.5,0,1,0.1,1.5,0c1.2-0.1,2.1-1.2,1.7-2.4c-0.8-1.9-0.2-3.5,0.6-5.1c2.1-4.2,5.2-7.4,9.2-9.7c1.2-0.7,2.5-1.1,3.9-1.3
	c4.1-0.7,6.3,0.4,8.4,4c2.4,4.1,2.8,4.2,6.5,1.4c3-2.4,6.3-3.5,10.1-3.7c2.8-0.1,5.5-0.3,8.2,0.4c1.7,0.4,3.4,1,4.9,1.9
	c2.3,1.4,3.6,3.5,3.5,6.3c0,0.6-0.1,1.3,0,1.9c0.1,0.6,0.4,1.2,0.9,1.6c0.7,0.5,1.4,0.2,2-0.4c0.2-0.2,0.4-0.3,0.5-0.5
	c3.1-3.8,7.3-4.1,11.7-3.4c3,0.5,5.7,1.9,8,3.9c2.3,2,3.5,4.5,3.5,7.6c0,4.2,0.1,4.3,4,5.4c4.8,1.4,9,3.8,12.6,7.2
	c1,0.9,1.9,2,2.6,3.2c1.5,2.6,1.2,4.7-0.9,6.9c-0.4,0.5-1,0.8-1.4,1.3c-1,1.1-0.9,2.4,0.3,3.2c0.7,0.5,1.5,0.8,2.3,1.3
	c2.3,1.3,4.5,2.8,6.3,4.7c0.9,0.9,1.7,1.9,2.3,3c1.4,2.5,1.3,5.1-0.5,7.4c-0.6,0.8-1.3,1.5-2,2.3c-1.4,1.6-1.6,3.4-0.5,5.2
	c0.8,1.3,1.6,2.5,2.4,3.8c0.8,1.3,1.7,2.5,2.3,3.9c0.4,0.9,0.7,1.9,0.8,2.9c0.2,1.3-0.3,2.3-1.5,2.8c-1,0.4-2.1,0.8-3.2,1.1
	c-1,0.3-2,0.4-2.9,0.8c-2.3,0.8-3,2.7-1.9,4.9c0.4,0.9,1.1,1.7,1.7,2.5c0.7,0.9,1.4,1.8,2.1,2.7c2.5,3.5,2.4,6-0.4,9.2
	c-3.2,3.7-7.1,5.9-12.2,5.7c-1,0-2,0.2-3,0.1C211.3,408.1,210.5,407.7,209.5,407.4z"/>
<path class="st17" d="M101.1,355.6c4.5,1.7,8.7,1.1,13.1-1.6c0,2.1,0,3.4-0.1,4.8c-0.1,2.3,0.4,4.5,1.5,6.6c1.5,2.7,3.7,4.4,6.8,4.8
	c3.1,0.5,6,0,8.8-1.3c1.2-0.5,2.5-1.1,4-1.7c0.2,0.8,0.4,1.4,0.5,2c0.2,1,0.4,2,0.8,2.9c2.2,5.9,6.7,8.6,13.5,7
	c1.6-0.4,3.1-1.1,4.8-1.7c0.1,0.8,0.3,1.5,0.3,2.1c0.7,7.1,4.1,10.4,11.2,10.5c1.9,0,3.7-0.3,5.7-0.5c0.8,0.9,0.3,2.1,0.3,3.1
	c0,3.1,0.9,6,2.4,8.7c1.5,2.6,3.5,4.5,6.5,5.4c2.7,0.7,5.2,0.6,7.7-0.7c0.7-0.4,1.5-0.8,2.4-1.3c0.7,1.2,1.3,2.3,2,3.4
	c2.2,3.3,5.2,5,9.1,5.1c1.7,0.1,3.2-0.3,4.7-1.2c0.9-0.5,1.7-1,2.5-1.5c0.9,0.5,0.5,1.2,0.3,1.7c-1.7,4.4-4,8.4-6.7,12.3
	c-3.1,4.6-6.4,9.1-10.2,13.1c-5.8,6.1-12.3,11.2-20,14.6c-6.6,2.9-13.5,4.3-20.8,4.1c-6.8-0.2-13.5-1-20.1-2.5
	c-7.4-1.7-14.1-4.9-20.4-9.3c-6.4-4.4-11.2-10.1-15.2-16.5c-4.6-7.5-6.6-15.8-7.1-24.5c-0.6-9.8,0.3-19.5,2.6-29
	C93.5,367.8,96.7,361.1,101.1,355.6z M121.2,415.7c-0.1,3.7,0.3,7.3,1.1,10.9c1.4,5.6,6.9,10.7,12.3,11.4c6.6,0.9,11.9-1.2,15.4-7
	c2.2-3.7,4-7.6,5.7-11.5c1.2-2.9,0.5-4.4-2.3-5.8c-0.8-0.4-1.6-0.7-2.5-0.9c-2.4-0.7-4.8-1.5-7.2-2.2c-6.6-1.9-13.5-2.5-20.3-3.7
	c-0.4-0.1-1.3,0.6-1.3,1C121.7,410.5,121.5,413.1,121.2,415.7z M118.7,389.8c0-0.4-0.1-1.1-0.2-1.7c-0.3-1.7-1.1-3.1-2.8-3.7
	c-1.9-0.7-3.7-0.3-5.3,1c-2,1.7-2.8,6.1-1.6,8.4c0.9,1.7,2.4,2.5,4.3,2.4C116.1,396,118.5,393.2,118.7,389.8z M167.4,409.5
	c-0.3,2.9,1.7,6.2,4.1,6.4c2.3,0.2,5.3-1.9,5.6-4c0.4-2.9-1.6-5.8-4.2-6.2C170.1,405.2,167.7,406.9,167.4,409.5z"/>
<path class="st12" d="M187.6,546.8c-2.2,1.8-7.6,4.4-10,4.9c-2,0.4-3.1,0-4-1.8c-0.6-1.2-1.1-2.5-1.6-3.9c-0.6-1.7-1-3.4-1.5-5.1
	c-0.7-2.2-1.1-2.5-3.5-2.7c-0.6,0-1.3-0.1-1.9-0.1c-5.6,0.5-11-0.7-16.4-1.5c-3-0.5-6-0.8-8.9-1.3c-1.8-0.3-3.7-0.6-5.5-1.1
	c-1.5-0.4-2.6,0-3.4,1.5c-0.3,0.6-0.5,1.2-0.7,1.7c-1.9,4-3.6,8-5.6,12c-1.7,3.4-2.3,3.7-5.9,2.6c-3.3-1-6.6-2.2-9.7-3.2
	c-0.8-1.3-0.4-2.3-0.1-3.3c0.6-1.5,1.4-3,2.1-4.5c1.7-3.5,3.4-7.1,5.1-10.6c0.7-1.5,1.5-2.9,2.3-4.5c2.5,0.3,4.9,0.7,7.2,0.9
	c13.6,1.5,27.2,2.6,40.8,0.6c3.7-0.5,7.3-1.7,11.3-2.7c0.3,0.4,0.9,1.1,1.2,1.8c2.9,6.4,5.8,12.9,8.7,19.3
	C187.6,546.2,187.6,546.5,187.6,546.8z"/>
<path class="st18" d="M116.8,507.1c0-4.2,0.9-8.4,1.6-12.5c1.9-0.3,3.5,0.1,5,0.6c7.6,2.2,15.4,3.2,23.3,3.5
	c2.6,0.1,5.2,0.1,7.8-0.5c3.7-0.8,7.4-1.3,11.1-1.5c2.8-0.2,5.6-0.9,8.5-1.4c1.2,2.3,2.9,9.8,3.2,13.8c-9.6,3.5-19.5,4.1-29.5,2.9
	c-8.4-1-16.9-2-25.3-3.1C120.6,508.7,118.6,508.7,116.8,507.1z"/>
<path class="st19" d="M119.1,490.5c0.2-3.6,0.9-7.1,1.6-10.7c5.9,0.7,11.5,1.4,17.1,2.1c5.5,0.8,11,0.9,16.4,0
	c0.7-0.1,1.5-0.3,2.2-0.3c4.9-0.1,9.7-0.1,14.7-0.2c1.2,3,1.7,6.2,2.6,9.5c-0.6,0.4-1.1,0.9-1.8,1.2c-1.9,0.7-3.8,1.1-5.8,1.3
	c-3.4,0.2-6.8,0.5-10,1.2c-4.3,0.9-8.7,1-13,0.7c-7.8-0.6-15.3-2.3-22.8-4.2C119.9,490.9,119.6,490.7,119.1,490.5z"/>
<path class="st19" d="M115.5,521.7c-0.1-3.8,0.1-7,0.7-10.4c1.7,0.3,3.3,0.6,4.9,0.8c7.2,0.9,14.4,2,21.6,2.7
	c5.2,0.6,10.5,0.9,15.7,1c5.3,0.1,10.5-0.7,15.6-2.1c1.3-0.4,2.6-0.8,3.9-0.7c0.2,0.2,0.3,0.3,0.3,0.4c1,7.4,0.4,7.2-5.6,9.3
	c-2.5,0.9-5.1,1.3-7.7,1.7c-8.7,1.2-17.5,1-26.3,0.4c-6.5-0.4-13-1-19.4-2.2C118.1,522.4,116.9,522,115.5,521.7z"/>
<path class="st17" d="M249.9,420c0.8,1.5,0.4,2.7-0.1,3.9c-0.3,0.8-0.8,1.6-1.1,2.4c-0.3,0.8-0.3,1.6,0.4,2c0.5,0.3,1.2,0.3,1.7,0.2
	c1.2-0.4,2.3-1.1,3.4-1.5c0.7-0.3,1.4-0.3,2.1-0.5c1.1,0.8,0.8,1.7,0.4,2.5c-0.6,1.4-1.8,2.4-3.1,3.2c-0.8,0.4-1.6,0.8-2.3,1.2
	c-0.7,0.4-1.2,1-1,1.8c0.2,0.5,0.6,1.1,1.1,1.4c1,0.5,2.1,0.7,3.2,1.2c0.9,0.4,1.9,0.7,2.1,1.9c-0.9,1.3-2.3,1-3.4,1.4
	c-0.8,0.3-1.7,0.3-2.5,0.6c-1,0.4-1.4,1.6-0.8,2.5c0.5,0.7,1.1,1.4,1.5,2.1c0.3,0.4,0.4,0.9,0.6,1.4c-1.3,1.6-2.8,1.9-4.7,1.2
	c-3.3-1.1-6.1-2.8-8.4-5.5c-0.2-0.3-0.5-0.6-0.7-0.9c-2.8-5.5-5.5-11-4.6-17.6c0.2-1.7,0.7-3.2,1.5-4.6c0.3-0.5,0.8-0.9,1.3-1.4
	c2.4,1.1,3.2,3.3,3.9,5.4c0.3,0.8,0.4,1.7,0.7,2.5c0.4,1,2,1,2.5,0.1c0.4-0.6,0.5-1.4,0.8-2.1C245.4,422.1,246.8,420.9,249.9,420z"
	/>
<path class="st17" d="M52.5,390c2.8,1,5.8,3.5,7.5,6.4c0.4,0.6,0.6,1.4,1,2c0.4,0.7,1,1.2,1.8,1c0.9-0.2,1.2-0.8,1.2-1.7
	c0-0.8-0.1-1.5,0-2.3c0.4-2.8,3-5,5.8-5c1,0,1.8,0.6,1.8,1.6c0,1.5,0,3.1-0.4,4.5c-1,3-2.2,5.9-3.4,8.8c-0.6,1.4-1.3,2.7-2.8,3.4
	c-0.7,0.3-0.9,1-1.1,1.8c-1.2,4.7-5.5,8.2-10.3,8.3c-0.3,0-0.7-0.2-1.3-0.4c0.2-0.9,0.4-1.7,0.7-2.5c0.2-0.6,0.7-1.1,0.8-1.7
	c0.1-0.6,0.1-1.3-0.1-1.8c-0.4-0.8-1.2-0.8-2-0.6c-0.7,0.2-1.4,0.5-2.2,0.6c-1.5,0.2-3,0.2-4.3-0.7c-0.5-0.3-1.1-1-1-1.4
	c0.1-0.6,0.6-1.5,1.2-1.7c1-0.4,2.2-0.4,3.3-0.6c1-0.2,1.4-1.8,0.6-2.5c-0.4-0.3-0.8-0.5-1.2-0.8c-0.6-0.4-1.3-0.8-1.8-1.3
	c-0.7-0.6-1.1-1.4-0.7-2.4c0.4-1,1.1-1.8,2.2-1.8c1.1,0,2.2,0.2,3.3,0.5c0.7,0.2,1.4,0.6,2,0.9c0.8,0.4,1.5,0.3,2.1-0.3
	c0.6-0.6,0.5-1.3,0.1-2.1c-0.9-1.8-1.8-3.6-2.5-5.4C52.1,392.1,52.2,392,52.5,390z"/>
<path class="st18" d="M169.2,470.1c1.1,2.4,1,4.8,1.5,7.3c-0.8,0.3-1.5,0.7-2.2,0.7c-1.6,0.1-3.3,0-4.9,0c-3.7,0.2-7.5,0.4-11.2,0.7
	c-3.4,0.2-6.7,0.6-10.1,0.2c-5.1-0.6-10.2-1.1-15.3-1.7c-1.9-0.2-3.7-0.5-5.5-1.4c0-2.6,0.7-5,1.1-7.7c0.7,0,1.3-0.2,1.9,0
	c9.1,2.5,18.3,2.3,27.6,2.2c2,0,4,0,6,0.3c2.4,0.3,4.7,0.4,7.1-0.1C166.4,470.3,167.7,470.3,169.2,470.1z"/>
<path class="st19" d="M168.5,466.4c-3,1-5.8,1.3-8.7,1.1c-3.5-0.2-7-0.4-10.5-0.4c-6.5,0.1-13,0.1-19.4-1.1c-2.2-0.4-4.4-0.7-6.6-2
	c0.5-2.8,0.3-5.7,1.7-8.6c13.4,3.6,26.9,5.5,40.9,3C167.2,461,167.8,463.6,168.5,466.4z"/>
<path class="st17" d="M85.9,386.7c-2.1-0.6-3.1-2.4-4-4.2c-1.6-3.1-2.3-6.4-2.5-9.9c-0.1-2.8,0-5.6,0.8-8.3c0.5-1.8,1.3-3.6,2.6-5
	c1.3-1.3,2.7-1.7,4.5-1.1c3.3,1,5.1,4.3,3.9,7.5c-2.3,6.2-3.7,12.6-4.5,19.1c-0.1,0.4-0.1,0.7-0.3,1.1
	C86.3,386.2,86.1,386.4,85.9,386.7z"/>
<path class="st19" d="M67.6,563.6c0.1-0.8,0.2-1.6,0.4-2.3c1.2-4.2,3-8,5.4-11.6c0.9-1.4,2.3-1.9,3.9-1.9c1.2,0,2.2,0.4,2.7,1.6
	c0.4,0.8,0.8,1.6,1.2,2.3c0.7,1,0.7,2.1,0.4,3.3c-0.3,1.2-0.5,2.5-0.8,3.7c-0.9,4-3.2,7.1-6.5,9.4c-1.5,1-3,1.3-4.6,0.4
	c-1.6-0.9-2.2-2.4-2.2-4.1C67.6,564,67.6,563.8,67.6,563.6z"/>
<path class="st17" d="M204.2,429.4c2-3.3,3.6-5.9,5.2-8.6c1.5-2.6,2.7-5.3,4.1-8.1c2.2-0.2,4.3,0.2,6.3,0.9c2.5,0.9,3.4,2.7,2.7,5.4
	c-0.2,0.7-0.5,1.4-0.9,2.1c-0.9,1.7-2.2,3.1-3.8,4.2C214,427.9,209.6,429.2,204.2,429.4z"/>
<path class="st19" d="M219.7,557c1.5,1.4,2.8,2.7,4.2,3.9c2.1,1.9,3,4.3,2.9,7.1c-0.1,1.5-0.2,3-0.6,4.5c-0.2,0.8-0.8,1.5-1.4,2.2
	c-0.6,0.7-1.7,0.6-2.4,0c-0.5-0.5-1.1-1.1-1.3-1.8c-1.9-4.2-3.1-8.5-3.6-13.1C217.3,558.5,217.9,557.5,219.7,557z"/>
<path class="st20" d="M107.7,392.5c-5.6-3-12.9-1.8-16.6,3.7c-2.6,4-1.9,9.8,0.7,13.8c1.4,2.9,4,5.2,7,6c6.3,1.6,11.9-2.1,14.4-7.8
	C115.7,402.6,113,395.3,107.7,392.5z"/>
<path class="st20" d="M192.6,420.7c-1.9-4.3-5.8-6.4-10.1-6.6c-2.4-0.4-4.9-0.1-7.1,0.8c-6.9,2.9-8.1,11.8-3.9,17.4
	c3.8,5.1,11.2,7,16.7,3.4C193,432.3,195,426.1,192.6,420.7z"/>
<path class="st21" d="M94.3,359.7c1.4-2.3,2.5-4.2,3.6-6c-0.1-0.4,0-0.5-0.1-0.6c-3.2-4.8-2.4-9.6-0.1-14.4c0.4-0.9,1-1.8,1.5-2.8
	c-0.7-0.6-1.3-1.2-2-1.7c-2-1.7-3.1-4-3.3-6.6c-0.3-4,0.8-7.5,3.5-10.5c4-4.2,9-5.9,14.5-6.1c1.4-0.1,2.7,0.1,3.9,0.1
	c0.4-0.3,0.7-0.5,0.7-0.7c1-5.8,4.4-10.1,8.6-13.8c0.9-0.7,1.8-1.4,2.7-2c2.4-1.5,5-2.3,7.8-2.4c3.5-0.1,6.3,1.2,8.5,4
	c0.7,0.9,1.3,1.8,2,2.7c0.5-0.2,0.8-0.3,1.1-0.6c7.2-5.4,15.2-5.2,23.3-3.1c3.5,0.9,6.2,3.3,7.7,6.8c0.2,0.5,0.4,0.9,0.6,1.3
	c0.9,0.6,1.5-0.1,2.2-0.4c7.1-3,16.2-0.8,21.6,5.3c1.5,1.7,2.5,3.8,2.8,6.1c0.2,1.2,0.3,2.5,0.5,3.9c0.9,0.4,1.9,0.7,2.8,1
	c4.7,1.6,8.9,4.1,12.5,7.5c0.9,0.8,1.8,1.8,2.5,2.8c2.6,3.6,2.6,7.1,0.3,10.9c-0.2,0.3-0.4,0.6-0.7,1.1c0.6,0.5,1.2,1.1,2,1.6
	c2.3,1.4,4.3,3.1,6,5.1c1.1,1.3,2.1,2.8,2.8,4.4c1.3,3.3,0.8,6.5-1.3,9.3c-0.8,1.1-1.7,2.1-2.7,3.3c0.8,1.3,1.5,2.4,2.2,3.6
	c0.9,1.5,1.9,2.9,2.8,4.5c0.5,1,1,2.1,1.2,3.2c0.9,3.9-0.3,6.3-4,7.8c-1,0.4-2.2,0.6-3.2,1c-0.7,0.2-1.4,0.5-2.2,0.8
	c0.5,0.8,0.8,1.5,1.3,2.1c0.7,0.9,1.4,1.8,2.1,2.7c3.4,4.7,3.2,9.1-0.5,13.5c-1.6,1.8-3.4,3.4-5.5,4.5c-0.7,0.4-1.5,0.9-2.2,1.4
	c0.3,0.3,0.4,0.6,0.6,0.7c1.6,1.1,3,2.4,3.2,4.4c0.3,2.5,0.1,4.8-1.2,7c-1.7,3-4.2,5.3-7.3,6.9c-3.9,1.9-7.9,3.2-12.3,3.1
	c-1,0-2-0.1-3.2-0.1c-0.7,0.8-1.5,1.6-2.2,2.5c-6.6,8.3-14.5,15-24,19.8c-0.2,0.1-0.4,0.3-0.8,0.7c0.5,0.4,0.9,0.8,1.4,1
	c9.4,3.2,18.9,3.5,28.5,1.1c8.9-2.3,17.4-5.7,25.2-10.6c1.6-1,3.1-2.1,4.4-3.9c-0.8-2-1.7-4.1-2.5-6.2c-1.8-4.6-2.5-9.3-1.3-14.1
	c0.5-2,1.2-3.9,2.5-5.5c1.8-2.2,4.1-2.4,6.2-0.5c1.2,1.1,2.1,2.4,3.3,3.7c0.8-0.7,1.6-1.4,2.4-1.9c1.1-0.7,2.1-1.4,3.3-1.7
	c2.7-0.8,4.7,0.6,5.1,3.5c0.1,0.9,0.1,1.7,0.2,2.8c1,0,1.9,0.1,2.9,0.1c2.2,0.1,3.2,1,3.7,3.1c0.5,2.1-0.2,4-1.4,5.7
	c-0.7,0.9-1.4,1.7-2.3,2.7c0.8,0.7,1.6,1.3,2.3,2c2.3,2.4,2,5-0.9,6.5c-1,0.5-2,0.8-3.1,1.3c0.2,1.5,0.6,2.8,0.6,4.2
	c0,2.1-0.5,2.6-2.4,3.3c-4.4,1.7-8.1,0-11.7-2.1c-1.6-1-3-2.2-4.6-3.5c-1.4,1.1-2.7,2.2-4.2,3.1c-10.7,6.6-22.2,11.2-34.7,12.8
	c-8.1,1-16-0.2-23.7-2.9c-1.3-0.4-2.5-0.9-4.2-1.5c0,0.9-0.1,1.6,0.1,2.1c2,5.7,2.9,11.7,4.1,17.7c1.5,7.8,3.5,15.5,5.2,23.3
	c0.9,4.2,1.7,8.4,2.4,12.7c0.4,2.7,0.6,5.6-0.6,8.2c-0.5,1.2,0,2.2,0.5,3.2c1.9,4.1,3.8,8.2,5.7,12.4c0.5,1,0.9,2.1,1.3,3.1
	c0.8,1.9,1.5,3.7,3.2,5c1.3,1,1,2.5-0.4,3.4c-1.7,1.1-3.4,2.1-5.3,3.2c0.2,0.9,0.2,1.8,0.5,2.6c0.9,2.7,1.8,5.5,3,8.2
	c1,2.2,2.2,4.3,3.7,6.1c2.9,3.6,7,4.2,10.6,1.3c4.6-3.6,8.3-8,10.4-13.6c1.1-3.1,4.9-4.2,7.4-2.1c1.9,1.6,3.7,3.4,5.4,5.3
	c0.8,0.9,1.5,2,2,3.2c1.5,3.8,1.3,7.7,0,11.5c-1,2.8-3.1,4.2-5.7,4.2c-1.7-0.1-3.2-0.7-4.2-2.2c-0.8-1.1-1.4-2.4-1.9-3.7
	c-0.8-2.1-1.4-4.3-2.1-6.5c-0.2-0.7-0.5-1.3-0.9-2.3c-1,1.2-1.8,2.2-2.6,3.1c-1.6,1.7-3.2,3.6-5,5.1c-5.9,5.2-13,3.5-16.7-1.9
	c-1.4-2.1-2.7-4.3-3.7-6.6c-1.2-2.6-2-5.5-2.9-8.2c-0.2-0.6-0.5-1.1-0.8-1.8c-1.3,0.4-2.5,0.8-3.7,1.2c-4.2,1.2-7-0.1-8.9-4.1
	c-0.7-1.5-1.1-3.1-1.7-4.6c-0.5-1.3-0.9-2.6-1.3-4.1c-0.9-0.1-1.8-0.5-2.6-0.4c-4.9,0.5-9.7-0.7-14.6-1.4c-4.1-0.6-8.1-1.6-12.2-1.8
	c-1.2-0.1-2.4-0.4-3.9-0.6c-0.3,0.7-0.7,1.3-1,1.9c-2,4.1-3.8,8.2-6,12.2c-2.2,4.1-3.5,4.6-7.9,3.6c-0.8-0.2-1.7-0.3-2.6-0.5
	c-1,1-1.1,2.3-1.5,3.5c-0.9,2.7-2.1,5.1-3.7,7.4c-3.6,5.2-9.6,5.7-14,3.5c-2.6-1.3-4.8-3.2-6.8-5.3c-1.8-1.9-3.5-4-5.2-5.9
	c-1,0-1,0.7-1.1,1.3c-1.1,5-4,8.6-8.1,11.4c-2.5,1.7-5.1,2-7.8,0.4c-2.6-1.5-3.9-3.9-3.8-6.9c0-1.1,0.1-2.3,0.4-3.4
	c1.3-4.8,3.4-9.2,6.1-13.4c1.6-2.5,3.8-3.6,6.7-3.3c1.4,0.1,2.7,0.3,3.8,0.4c1.6,2.8,3,5.3,4.3,7.8c2.2,4.2,5.2,7.7,8.7,10.9
	c1.2,1.1,2.5,2.1,4,2.9c3.9,2.1,7.6,1.2,10.3-2.4c2.1-2.9,3.3-6.2,4.1-9.9c-0.8-0.4-1.5-0.8-2.3-1.1c-1.2-0.5-2.4-0.8-3.5-1.3
	c-1.4-0.6-2.2-1.8-1.9-3.4c0.3-1.6,0.7-3.2,1.3-4.7c0.6-1.6,1.5-3.2,2.3-4.8c2.1-4.3,4.1-8.7,6.3-13.1c-0.4-0.4-0.7-0.8-1-1.1
	c-1.1-0.8-1.6-1.9-1.7-3.2c-0.1-1.1,0-2.3,0.1-3.4c0.8-9.5,2.2-18.8,3.7-28.2c1.2-7.2,2.3-14.5,3.4-21.7c0.4-2.6,0.9-5.2,1.3-8
	c-0.9-0.2-1.6-0.5-2.3-0.6c-2.8-0.6-5.5-1.5-8.2-2.7c-10.5-4.7-19.6-11.2-27.3-19.7c-6-6.6-11.9-13.3-16.9-20.8
	c-0.1-0.1-0.2-0.1-0.3-0.2c-1-0.2-1.3,0.7-1.6,1.2c-2.2,3.4-5.5,4.6-9.2,5.2c-0.7,0.1-1.5,0.1-2.2,0c-2.5-0.3-3.5-1.4-3.7-3.9
	c0-0.5,0-1,0.1-1.7c-1-0.3-2-0.5-2.9-0.8c-1.1-0.4-2.2-0.7-3.1-1.3c-2.5-1.6-2.9-4.4-1.3-6.9c0.4-0.6,0.9-1.2,1.5-1.8
	c-1.4-2.3-1.8-4.7-0.1-7.1c1.2-1.7,2.1-2.2,6.7-3.1c-0.2-0.7-0.4-1.4-0.5-2.1c-0.1-1.5-0.3-3-0.2-4.5c0.3-2.3,1.8-3.3,4-2.6
	c1.1,0.3,2.1,0.8,3,1.5c1.2,0.9,2.3,1.9,3.5,2.9c0.6,0.5,1.1,0.9,1.8,1.5c0.8-0.9,1.5-1.6,2.1-2.3c1.6-1.7,3.8-2.5,6.1-2.7
	c2.8-0.2,4.8,1.5,5.2,4.3c0.4,2.2,0,4.3-0.6,6.4c-1.4,4.8-3.2,9.6-6.4,13.8c0.5,2.2,1.9,4,3.2,5.9c4.6,6.5,9.8,12.5,15.3,18.2
	c2.9,3,6,5.8,9.2,8.4c5.4,4.3,11.5,7.7,17.9,10.3c1.7,0.7,3.6,1.1,5.4,1.5c1,0.2,1.1,0,2.2-1.8c-0.7-0.4-1.4-1-2.1-1.3
	c-5-2.4-9.7-5.5-13.8-9.1c-7.2-6.3-12.6-14-15.8-23.2c-2.7-7.9-3.8-16-3.5-24.3c0.1-1.8,0.1-3.5,0.2-5.3c-7-3.2-8.9-9.5-9.8-16.2
	c-0.5-3.9-0.4-7.9,0.9-11.6c0.6-1.6,1.3-3.3,2.3-4.7c2.9-4.1,8-4.7,11.8-1.5C92.3,357.6,93.2,358.6,94.3,359.7z M209.5,407.4
	c0.9,0.3,1.7,0.7,2.6,0.8c1,0.1,2-0.1,3-0.1c5,0.2,9-2.1,12.2-5.7c2.8-3.2,2.8-5.7,0.4-9.2c-0.6-0.9-1.4-1.8-2.1-2.7
	c-0.6-0.8-1.2-1.6-1.7-2.5c-1.1-2.2-0.4-4,1.9-4.9c0.9-0.3,1.9-0.5,2.9-0.8c1.1-0.3,2.1-0.7,3.2-1.1c1.2-0.5,1.7-1.5,1.5-2.8
	c-0.2-1-0.4-2-0.8-2.9c-0.7-1.3-1.5-2.6-2.3-3.9c-0.8-1.3-1.7-2.5-2.4-3.8c-1.1-1.8-0.9-3.6,0.5-5.2c0.7-0.8,1.4-1.5,2-2.3
	c1.8-2.4,1.9-4.9,0.5-7.4c-0.6-1.1-1.5-2.1-2.3-3c-1.8-1.9-4-3.4-6.3-4.7c-0.8-0.4-1.6-0.8-2.3-1.3c-1.2-0.8-1.3-2.1-0.3-3.2
	c0.4-0.5,1-0.8,1.4-1.3c2.1-2.2,2.4-4.2,0.9-6.9c-0.7-1.2-1.6-2.3-2.6-3.2c-3.7-3.4-7.9-5.8-12.6-7.2c-3.9-1.1-3.9-1.1-4-5.4
	c0-3.1-1.2-5.6-3.5-7.6c-2.3-2-5-3.4-8-3.9c-4.4-0.7-8.5-0.4-11.7,3.4c-0.2,0.2-0.4,0.4-0.5,0.5c-0.6,0.6-1.4,0.9-2,0.4
	c-0.4-0.3-0.7-1-0.9-1.6c-0.1-0.6,0-1.3,0-1.9c0.1-2.8-1.3-4.9-3.5-6.3c-1.5-0.9-3.2-1.5-4.9-1.9c-2.7-0.7-5.5-0.5-8.2-0.4
	c-3.8,0.1-7.1,1.3-10.1,3.7c-3.6,2.9-4.1,2.7-6.5-1.4c-2.1-3.6-4.3-4.7-8.4-4c-1.3,0.2-2.7,0.7-3.9,1.3c-4,2.3-7.1,5.6-9.2,9.7
	c-0.8,1.6-1.4,3.2-0.6,5.1c0.5,1.2-0.4,2.3-1.7,2.4c-0.5,0.1-1,0-1.5,0c-2.7,0.1-5.5,0.1-8.2,0.4c-3.4,0.4-6.5,1.9-9,4.3
	c-2.6,2.5-3.3,5.6-2.9,9c0.2,1.9,1.3,3.2,2.9,4.2c1.3,0.8,2.6,0.5,3.9-0.1c0.7-0.4,1.7-0.5,2.5-0.5c0.8,0,1.5,0.4,1.6,1.3
	c0.1,0.5-0.2,1.2-0.5,1.7c-0.7,1.1-1.9,1.7-3.2,1.8c-0.9,0.1-1.7,0.4-2.3,1.1c-2.2,2.7-3.6,5.8-3.4,9.4c0.2,3.7,1.9,5.3,4.7,6
	c1.9,0.4,3.8,0.5,5.5-0.3c1.7-0.8,3.3-1.9,4.8-2.9c0.7-0.5,1.4-1.1,2.1-1.6c1.1-0.7,2.4,0.1,2.4,1.4c0,1-0.2,2-0.5,3
	c-0.7,2.3-0.9,4.7-0.7,7.1c0.3,5.2,3.7,8,8.8,7.3c0.3,0,0.5-0.1,0.7-0.2c3.7-1.1,7.1-2.5,9.6-5.7c0.2-0.3,0.4-0.7,0.7-0.9
	c0.5-0.2,1.3-0.4,1.7-0.2c0.4,0.2,0.8,1,0.8,1.5c0.1,0.6-0.3,1.2-0.4,1.8c-0.2,1.5-0.6,3-0.5,4.5c0.3,6.5,5.1,9.9,11.2,7.6
	c2.1-0.8,4-2,6-3c0.6-0.3,1-0.8,1.6-0.9c0.4-0.1,1.1-0.1,1.4,0.1c0.4,0.4,0.6,1.1,0.6,1.6c0,0.5-0.3,0.9-0.4,1.4
	c-0.3,1.5-0.7,3-0.8,4.5c-0.1,4.5,2.2,7,6.7,7.5c2.3,0.3,4.5-0.1,6.5-1.2c0.9-0.5,1.7-1.1,2.6-1.4c0.5-0.2,1.3-0.1,1.7,0.2
	c0.4,0.3,0.5,1.1,0.5,1.7c0,0.6-0.4,1.2-0.4,1.8c-0.2,1.6-0.6,3.3-0.6,4.9c0,3.4,1.1,6.5,3.5,9c2.5,2.7,6.7,2.9,9.6,0.6
	c0.7-0.6,1.2-1.3,1.9-1.9c1.1-0.9,2.5-0.6,3.1,0.7c0.3,0.7,0.5,1.4,0.8,2.1c0.5,1.1,1,2.3,1.7,3.4c2.1,3.1,5.8,4.1,9.3,2.6
	C206.8,408.6,208.2,408,209.5,407.4z M101.1,355.6c-4.3,5.5-7.5,12.2-9.2,18.9c-2.3,9.5-3.2,19.2-2.6,29c0.5,8.7,2.5,17,7.1,24.5
	c4,6.5,8.8,12.2,15.2,16.5c6.3,4.3,13,7.6,20.4,9.3c6.6,1.5,13.3,2.3,20.1,2.5c7.3,0.3,14.2-1.2,20.8-4.1c7.7-3.4,14.2-8.5,20-14.6
	c3.8-4,7.1-8.5,10.2-13.1c2.6-3.9,4.9-7.9,6.7-12.3c0.2-0.5,0.6-1.2-0.3-1.7c-0.8,0.5-1.6,1-2.5,1.5c-1.4,0.8-3,1.2-4.7,1.2
	c-3.9-0.1-7-1.9-9.1-5.1c-0.7-1-1.3-2.2-2-3.4c-0.9,0.5-1.6,0.9-2.4,1.3c-2.5,1.3-5,1.4-7.7,0.7c-3-0.8-5-2.8-6.5-5.4
	c-1.6-2.6-2.4-5.5-2.4-8.7c0-1,0.5-2.2-0.3-3.1c-2,0.2-3.9,0.5-5.7,0.5c-7.2-0.1-10.6-3.4-11.2-10.5c-0.1-0.7-0.2-1.3-0.3-2.1
	c-1.8,0.7-3.3,1.4-4.8,1.7c-6.8,1.6-11.3-1.1-13.5-7c-0.3-0.9-0.5-1.9-0.8-2.9c-0.1-0.6-0.3-1.1-0.5-2c-1.5,0.6-2.7,1.2-4,1.7
	c-2.8,1.2-5.7,1.7-8.8,1.3c-3.1-0.5-5.3-2.2-6.8-4.8c-1.1-2-1.6-4.2-1.5-6.6c0-1.3,0-2.7,0.1-4.8
	C109.8,356.7,105.6,357.3,101.1,355.6z M187.6,546.8c0-0.3,0.1-0.5,0-0.7c-2.9-6.4-5.8-12.9-8.7-19.3c-0.3-0.7-0.9-1.4-1.2-1.8
	c-4,1-7.6,2.2-11.3,2.7c-13.6,2-27.3,0.9-40.8-0.6c-2.3-0.3-4.7-0.6-7.2-0.9c-0.8,1.6-1.6,3-2.3,4.5c-1.7,3.5-3.4,7.1-5.1,10.6
	c-0.7,1.5-1.5,3-2.1,4.5c-0.4,0.9-0.7,1.9,0.1,3.3c3.1,1,6.3,2.2,9.7,3.2c3.6,1.1,4.2,0.8,5.9-2.6c2-3.9,3.8-8,5.6-12
	c0.3-0.6,0.5-1.2,0.7-1.7c0.8-1.5,1.9-2,3.4-1.5c1.8,0.5,3.7,0.8,5.5,1.1c3,0.5,5.9,0.9,8.9,1.3c5.4,0.9,10.8,2,16.4,1.5
	c0.6-0.1,1.3,0,1.9,0.1c2.3,0.1,2.8,0.5,3.5,2.7c0.5,1.7,1,3.4,1.5,5.1c0.4,1.3,0.9,2.6,1.6,3.9c0.9,1.8,2,2.2,4,1.8
	C179.9,551.2,185.3,548.5,187.6,546.8z M116.8,507.1c1.8,1.6,3.8,1.6,5.8,1.9c8.4,1.1,16.9,2.1,25.3,3.1c10,1.2,19.9,0.6,29.5-2.9
	c-0.3-4-2-11.5-3.2-13.8c-2.8,0.5-5.6,1.1-8.5,1.4c-3.8,0.3-7.5,0.7-11.1,1.5c-2.6,0.6-5.2,0.6-7.8,0.5c-7.9-0.3-15.7-1.3-23.3-3.5
	c-1.6-0.5-3.1-0.9-5-0.6C117.7,498.7,116.8,502.9,116.8,507.1z M119.1,490.5c0.5,0.2,0.8,0.5,1.1,0.6c7.5,1.9,15,3.7,22.8,4.2
	c4.4,0.3,8.7,0.3,13-0.7c3.3-0.7,6.7-1,10-1.2c2-0.2,4-0.5,5.8-1.3c0.6-0.2,1.2-0.8,1.8-1.2c-0.8-3.3-1.3-6.5-2.6-9.5
	c-5,0.1-9.9,0.1-14.7,0.2c-0.7,0-1.5,0.1-2.2,0.3c-5.5,0.9-10.9,0.8-16.4,0c-5.5-0.8-11.1-1.4-17.1-2.1
	C120,483.3,119.4,486.9,119.1,490.5z M115.5,521.7c1.4,0.4,2.6,0.8,3.8,1c6.4,1.2,12.9,1.8,19.4,2.2c8.8,0.6,17.5,0.8,26.3-0.4
	c2.6-0.4,5.2-0.8,7.7-1.7c6-2.1,6.6-1.8,5.6-9.3c0-0.1-0.1-0.2-0.3-0.4c-1.3-0.1-2.5,0.3-3.9,0.7c-5.1,1.4-10.3,2.2-15.6,2.1
	c-5.3-0.1-10.5-0.5-15.7-1c-7.2-0.8-14.4-1.8-21.6-2.7c-1.6-0.2-3.2-0.5-4.9-0.8C115.6,514.7,115.4,517.9,115.5,521.7z M249.9,420
	c-3.1,0.9-4.5,2.1-5.6,4.7c-0.3,0.7-0.5,1.4-0.8,2.1c-0.5,0.9-2,0.9-2.5-0.1c-0.3-0.8-0.4-1.7-0.7-2.5c-0.7-2.1-1.5-4.3-3.9-5.4
	c-0.5,0.5-1,0.9-1.3,1.4c-0.8,1.4-1.3,3-1.5,4.6c-0.9,6.5,1.8,12,4.6,17.6c0.2,0.3,0.4,0.6,0.7,0.9c2.3,2.6,5.1,4.4,8.4,5.5
	c1.9,0.6,3.4,0.4,4.7-1.2c-0.2-0.4-0.3-0.9-0.6-1.4c-0.5-0.7-1.1-1.4-1.5-2.1c-0.6-1-0.2-2.2,0.8-2.5c0.8-0.3,1.7-0.3,2.5-0.6
	c1.1-0.4,2.6-0.1,3.4-1.4c-0.2-1.1-1.2-1.5-2.1-1.9c-1-0.4-2.2-0.7-3.2-1.2c-0.5-0.2-1-0.8-1.1-1.4c-0.2-0.8,0.3-1.4,1-1.8
	c0.8-0.4,1.6-0.8,2.3-1.2c1.4-0.7,2.5-1.7,3.1-3.2c0.4-0.8,0.6-1.7-0.4-2.5c-0.6,0.1-1.4,0.2-2.1,0.5c-1.2,0.5-2.3,1.1-3.4,1.5
	c-0.5,0.2-1.3,0.1-1.7-0.2c-0.7-0.4-0.8-1.3-0.4-2c0.3-0.8,0.8-1.6,1.1-2.4C250.3,422.7,250.7,421.5,249.9,420z M52.5,390
	c-0.3,2-0.4,2.1,0.1,3.2c0.8,1.8,1.7,3.6,2.5,5.5c0.4,0.7,0.5,1.5-0.1,2.1c-0.6,0.6-1.3,0.7-2.1,0.3c-0.7-0.3-1.3-0.8-2-0.9
	c-1.1-0.3-2.2-0.5-3.3-0.5c-1.1,0-1.8,0.8-2.2,1.8c-0.4,1,0,1.7,0.7,2.4c0.5,0.5,1.2,0.9,1.8,1.3c0.4,0.3,0.9,0.5,1.2,0.8
	c0.8,0.7,0.4,2.2-0.6,2.5c-1.1,0.2-2.3,0.2-3.3,0.6c-0.6,0.2-1.1,1.1-1.2,1.7c-0.1,0.4,0.6,1.1,1,1.4c1.3,0.9,2.8,0.9,4.3,0.7
	c0.7-0.1,1.4-0.4,2.2-0.6c0.8-0.2,1.6-0.2,2,0.6c0.2,0.5,0.3,1.2,0.1,1.8c-0.1,0.6-0.6,1.1-0.8,1.7c-0.3,0.8-0.5,1.6-0.7,2.5
	c0.6,0.2,0.9,0.4,1.3,0.4c4.8-0.2,9.1-3.7,10.3-8.3c0.2-0.8,0.4-1.5,1.1-1.8c1.6-0.6,2.3-1.9,2.8-3.4c1.2-2.9,2.4-5.8,3.4-8.8
	c0.4-1.4,0.4-3,0.4-4.5c0-1-0.8-1.6-1.8-1.6c-2.8,0-5.4,2.2-5.8,5c-0.1,0.7,0,1.5,0,2.3c0,0.8-0.3,1.5-1.2,1.7
	c-0.9,0.1-1.4-0.3-1.8-1c-0.4-0.7-0.6-1.4-1-2C58.2,393.5,55.3,391,52.5,390z M169.2,470.1c-1.4,0.2-2.8,0.2-4.1,0.5
	c-2.4,0.5-4.7,0.4-7.1,0.1c-2-0.2-4-0.3-6-0.3c-9.3,0.1-18.5,0.3-27.6-2.2c-0.5-0.2-1.2,0-1.9,0c-0.4,2.6-1.1,5-1.1,7.7
	c1.8,0.9,3.6,1.2,5.5,1.4c5.1,0.6,10.2,1.1,15.3,1.7c3.4,0.4,6.7,0,10.1-0.2c3.7-0.3,7.5-0.5,11.2-0.7c1.6-0.1,3.3,0,4.9,0
	c0.7,0,1.3-0.4,2.2-0.7C170.1,474.9,170.3,472.5,169.2,470.1z M168.5,466.4c-0.7-2.8-1.3-5.4-2.5-8c-13.9,2.5-27.4,0.6-40.9-3
	c-1.4,2.9-1.3,5.8-1.7,8.6c2.1,1.3,4.4,1.6,6.6,2c6.4,1.2,12.9,1.2,19.4,1.1c3.5-0.1,7,0.2,10.5,0.4
	C162.7,467.7,165.5,467.4,168.5,466.4z M85.9,386.7c0.2-0.3,0.5-0.4,0.6-0.7c0.1-0.3,0.2-0.7,0.3-1.1c0.8-6.5,2.2-12.9,4.5-19.1
	c1.2-3.2-0.7-6.4-3.9-7.5c-1.7-0.6-3.2-0.2-4.5,1.1c-1.3,1.4-2.1,3.1-2.6,5c-0.8,2.7-1,5.5-0.8,8.3c0.2,3.4,0.9,6.8,2.5,9.8
	C82.8,384.3,83.8,386,85.9,386.7z M67.6,563.6c0,0.2,0,0.4,0,0.7c0,1.8,0.6,3.3,2.2,4.1c1.6,0.9,3.1,0.6,4.6-0.4
	c3.3-2.3,5.6-5.4,6.5-9.4c0.3-1.2,0.5-2.5,0.8-3.7c0.3-1.2,0.2-2.2-0.4-3.3c-0.5-0.7-0.9-1.5-1.2-2.3c-0.6-1.2-1.5-1.6-2.7-1.6
	c-1.6,0-2.9,0.5-3.9,1.9c-2.4,3.6-4.2,7.5-5.4,11.6C67.8,562,67.8,562.8,67.6,563.6z M204.2,429.4c5.5-0.2,9.8-1.4,13.7-4.1
	c1.6-1.1,2.8-2.5,3.8-4.2c0.4-0.6,0.7-1.4,0.9-2.1c0.6-2.7-0.2-4.5-2.7-5.4c-2-0.7-4.1-1.1-6.3-0.9c-1.4,2.7-2.7,5.5-4.1,8.1
	C207.9,423.5,206.2,426.1,204.2,429.4z M219.7,557c-1.8,0.4-2.4,1.5-2.2,2.9c0.5,4.5,1.7,8.9,3.6,13.1c0.3,0.7,0.8,1.3,1.3,1.8
	c0.6,0.6,1.8,0.7,2.4,0c0.6-0.6,1.2-1.4,1.4-2.2c0.4-1.5,0.5-3,0.6-4.5c0.1-2.8-0.8-5.2-2.9-7.1C222.6,559.7,221.2,558.4,219.7,557z
	"/>
<path class="st21" d="M121.2,415.7c0.3-2.6,0.5-5.2,0.9-7.8c0.1-0.4,1-1.1,1.3-1c6.8,1.2,13.7,1.7,20.3,3.7c2.4,0.7,4.8,1.4,7.2,2.2
	c0.8,0.3,1.7,0.6,2.5,0.9c2.8,1.4,3.6,3,2.3,5.8c-1.7,3.9-3.5,7.8-5.7,11.5c-3.5,5.8-8.8,8-15.4,7c-5.4-0.8-10.9-5.8-12.3-11.4
	C121.5,423.1,121.1,419.4,121.2,415.7z M152.7,417.2c-0.6-0.4-1.1-0.7-1.7-0.9c-7.8-2.7-15.9-4.6-24.1-5.4c-1.2-0.1-1.9,0.4-2,1.7
	c-0.4,4-0.4,8.1,0.4,12.1c0.9,4.6,3.7,7.6,7.8,9.5c3.3,1.5,9.5,1.3,13-3.1c0.8-1.1,1.7-2.2,2.3-3.4c1.4-2.8,2.8-5.7,4.1-8.5
	C152.7,418.6,152.6,417.9,152.7,417.2z"/>
<path class="st22" d="M152.7,417.2c-0.1,0.7-0.1,1.4-0.3,1.9c-1.3,2.9-2.7,5.7-4.1,8.5c-0.6,1.2-1.5,2.3-2.3,3.4
	c-3.4,4.4-9.6,4.7-13,3.1c-4.1-1.9-6.9-4.9-7.8-9.5c-0.8-4-0.8-8-0.4-12.1c0.1-1.3,0.8-1.8,2-1.7c8.3,0.8,16.3,2.7,24.1,5.4
	C151.6,416.5,152.1,416.9,152.7,417.2z"/>
<path class="st21" d="M118.7,389.8c-0.1,3.4-2.5,6.2-5.5,6.4c-2,0.2-3.4-0.7-4.3-2.4c-1.2-2.3-0.4-6.7,1.6-8.4
	c1.5-1.3,3.4-1.7,5.3-1c1.7,0.6,2.5,2,2.8,3.7C118.6,388.7,118.6,389.3,118.7,389.8z"/>
<path class="st21" d="M167.4,409.5c0.3-2.6,2.7-4.3,5.5-3.9c2.6,0.4,4.6,3.4,4.2,6.2c-0.3,2.1-3.3,4.3-5.6,4
	C169.1,415.7,167,412.4,167.4,409.5z"/>
</svg>
